<svg width="150" height="48" viewBox="0 0 150 48" fill="none" xmlns="http://www.w3.org/2000/svg">
<rect x="0.548828" y="0.548828" width="148.189" height="46.0196" stroke="#292929" stroke-width="0.902345"/>
<path d="M32.3003 14.7397C29.3117 14.7397 28.0486 16.1639 25.9672 16.1639C23.8332 16.1639 22.2055 14.7501 19.6156 14.7501C17.0806 14.7501 14.3773 16.2957 12.6606 18.9286C10.2501 22.6414 10.6592 29.6341 14.5633 35.5913C15.9598 37.7238 17.8248 40.1154 20.2708 40.1414H20.3153C22.4412 40.1414 23.0727 38.7512 25.9983 38.735H26.0428C28.9247 38.735 29.5029 40.1332 31.6199 40.1332H31.6643C34.1104 40.1073 36.0754 37.4574 37.4719 35.333C38.477 33.8052 38.8506 33.0383 39.6215 31.31C33.974 29.1693 33.0668 21.1743 38.652 18.1092C36.9471 15.9774 34.5515 14.7427 32.2929 14.7427L32.3003 14.7397Z" fill="#292929"/>
<path d="M31.6421 6.97803C29.8631 7.09868 27.7877 8.22971 26.5721 9.70642C25.4691 11.0447 24.5618 13.0299 24.9176 14.9552H25.0599C26.9545 14.9552 28.8936 13.816 30.0262 12.3564C31.1173 10.967 31.9445 8.99805 31.6421 6.97803Z" fill="#292929"/>
<path d="M59.8225 13.4141H58.2024V8.16406H59.8943C60.4036 8.16406 60.8394 8.26916 61.2017 8.47936C61.564 8.68786 61.8417 8.98779 62.0348 9.37915C62.2279 9.76879 62.3245 10.2353 62.3245 10.7788C62.3245 11.3257 62.2271 11.7965 62.0322 12.1913C61.8374 12.5843 61.5537 12.8868 61.1812 13.0988C60.8086 13.309 60.3557 13.4141 59.8225 13.4141ZM58.8381 12.8501H59.7815C60.2156 12.8501 60.5753 12.7664 60.8607 12.5989C61.1461 12.4314 61.3589 12.193 61.499 11.8837C61.6392 11.5743 61.7092 11.2061 61.7092 10.7788C61.7092 10.355 61.64 9.99011 61.5016 9.6842C61.3632 9.37658 61.1564 9.14074 60.8812 8.97668C60.6061 8.81091 60.2634 8.72802 59.8533 8.72802H58.8381V12.8501ZM64.9085 13.4961C64.553 13.4961 64.2411 13.4115 63.9728 13.2423C63.7062 13.0731 63.4977 12.8364 63.3473 12.5322C63.1986 12.228 63.1243 11.8726 63.1243 11.4658C63.1243 11.0557 63.1986 10.6976 63.3473 10.3917C63.4977 10.0858 63.7062 9.84826 63.9728 9.67907C64.2411 9.50988 64.553 9.42529 64.9085 9.42529C65.2639 9.42529 65.575 9.50988 65.8416 9.67907C66.1099 9.84826 66.3184 10.0858 66.4671 10.3917C66.6174 10.6976 66.6926 11.0557 66.6926 11.4658C66.6926 11.8726 66.6174 12.228 66.4671 12.5322C66.3184 12.8364 66.1099 13.0731 65.8416 13.2423C65.575 13.4115 65.2639 13.4961 64.9085 13.4961ZM64.9085 12.9526C65.1785 12.9526 65.4007 12.8834 65.575 12.745C65.7493 12.6066 65.8783 12.4246 65.9621 12.199C66.0458 11.9734 66.0877 11.729 66.0877 11.4658C66.0877 11.2026 66.0458 10.9574 65.9621 10.7301C65.8783 10.5028 65.7493 10.3191 65.575 10.179C65.4007 10.0388 65.1785 9.96875 64.9085 9.96875C64.6384 9.96875 64.4163 10.0388 64.242 10.179C64.0676 10.3191 63.9386 10.5028 63.8549 10.7301C63.7711 10.9574 63.7293 11.2026 63.7293 11.4658C63.7293 11.729 63.7711 11.9734 63.8549 12.199C63.9386 12.4246 64.0676 12.6066 64.242 12.745C64.4163 12.8834 64.6384 12.9526 64.9085 12.9526ZM68.3743 13.4141L67.1746 9.47656H67.8103L68.6614 12.4912H68.7024L69.5432 9.47656H70.1892L71.0198 12.481H71.0608L71.9119 9.47656H72.5476L71.3479 13.4141H70.7532L69.8919 10.3892H69.8303L68.969 13.4141H68.3743ZM73.9524 11.0454V13.4141H73.3474V9.47656H73.9319V10.0918H73.9832C74.0755 9.89184 74.2156 9.7312 74.4036 9.60986C74.5916 9.48681 74.8343 9.42529 75.1316 9.42529C75.3982 9.42529 75.6315 9.47998 75.8314 9.58935C76.0314 9.69702 76.1869 9.86108 76.298 10.0815C76.4091 10.3003 76.4646 10.5771 76.4646 10.9121V13.4141H75.8596V10.9531C75.8596 10.6438 75.7793 10.4028 75.6187 10.2302C75.458 10.0559 75.2376 9.96875 74.9573 9.96875C74.7642 9.96875 74.5916 10.0106 74.4395 10.0944C74.2891 10.1781 74.1703 10.3003 74.0832 10.4609C73.996 10.6216 73.9524 10.8164 73.9524 11.0454ZM78.1751 8.16406V13.4141H77.5701V8.16406H78.1751ZM80.8828 13.4961C80.5273 13.4961 80.2154 13.4115 79.9471 13.2423C79.6805 13.0731 79.472 12.8364 79.3216 12.5322C79.1729 12.228 79.0986 11.8726 79.0986 11.4658C79.0986 11.0557 79.1729 10.6976 79.3216 10.3917C79.472 10.0858 79.6805 9.84826 79.9471 9.67907C80.2154 9.50988 80.5273 9.42529 80.8828 9.42529C81.2383 9.42529 81.5493 9.50988 81.8159 9.67907C82.0842 9.84826 82.2927 10.0858 82.4414 10.3917C82.5918 10.6976 82.667 11.0557 82.667 11.4658C82.667 11.8726 82.5918 12.228 82.4414 12.5322C82.2927 12.8364 82.0842 13.0731 81.8159 13.2423C81.5493 13.4115 81.2383 13.4961 80.8828 13.4961ZM80.8828 12.9526C81.1528 12.9526 81.375 12.8834 81.5493 12.745C81.7236 12.6066 81.8526 12.4246 81.9364 12.199C82.0201 11.9734 82.062 11.729 82.062 11.4658C82.062 11.2026 82.0201 10.9574 81.9364 10.7301C81.8526 10.5028 81.7236 10.3191 81.5493 10.179C81.375 10.0388 81.1528 9.96875 80.8828 9.96875C80.6128 9.96875 80.3906 10.0388 80.2163 10.179C80.042 10.3191 79.9129 10.5028 79.8292 10.7301C79.7455 10.9574 79.7036 11.2026 79.7036 11.4658C79.7036 11.729 79.7455 11.9734 79.8292 12.199C79.9129 12.4246 80.042 12.6066 80.2163 12.745C80.3906 12.8834 80.6128 12.9526 80.8828 12.9526ZM84.7492 13.5063C84.4996 13.5063 84.2732 13.4594 84.0698 13.3654C83.8665 13.2697 83.705 13.1321 83.5853 12.9526C83.4657 12.7715 83.4059 12.5527 83.4059 12.2964C83.4059 12.0708 83.4503 11.8879 83.5392 11.7478C83.6281 11.606 83.7468 11.4949 83.8955 11.4145C84.0442 11.3342 84.2083 11.2744 84.3877 11.2351C84.5689 11.1941 84.7509 11.1616 84.9337 11.1377C85.173 11.1069 85.367 11.0839 85.5156 11.0685C85.666 11.0514 85.7754 11.0232 85.8438 10.9839C85.9138 10.9446 85.9489 10.8762 85.9489 10.7788V10.7583C85.9489 10.5054 85.8796 10.3088 85.7412 10.1687C85.6045 10.0286 85.3969 9.95849 85.1183 9.95849C84.8295 9.95849 84.603 10.0217 84.439 10.1482C84.2749 10.2747 84.1596 10.4097 84.0929 10.5532L83.5187 10.3481C83.6212 10.1089 83.7579 9.9226 83.9288 9.7893C84.1014 9.65429 84.2894 9.5603 84.4928 9.50732C84.6979 9.45263 84.8995 9.42529 85.0978 9.42529C85.2243 9.42529 85.3695 9.44067 85.5336 9.47143C85.6993 9.50048 85.8591 9.56115 86.0129 9.65344C86.1685 9.74572 86.2975 9.88501 86.4 10.0713C86.5026 10.2576 86.5538 10.5071 86.5538 10.8198V13.4141H85.9489V12.8809H85.9181C85.8771 12.9663 85.8087 13.0577 85.713 13.1552C85.6173 13.2526 85.49 13.3354 85.3311 13.4038C85.1721 13.4722 84.9782 13.5063 84.7492 13.5063ZM84.8414 12.9629C85.0807 12.9629 85.2824 12.9159 85.4464 12.8219C85.6122 12.7279 85.7369 12.6066 85.8207 12.4579C85.9061 12.3092 85.9489 12.1528 85.9489 11.9888V11.4351C85.9232 11.4658 85.8668 11.494 85.7797 11.5197C85.6942 11.5436 85.5951 11.5649 85.4823 11.5837C85.3712 11.6008 85.2627 11.6162 85.1567 11.6299C85.0525 11.6418 84.9679 11.6521 84.903 11.6606C84.7457 11.6812 84.5988 11.7145 84.462 11.7606C84.327 11.8051 84.2177 11.8726 84.1339 11.9631C84.0519 12.052 84.0109 12.1733 84.0109 12.3271C84.0109 12.5374 84.0886 12.6963 84.2441 12.804C84.4014 12.9099 84.6005 12.9629 84.8414 12.9629ZM89.1449 13.4961C88.8168 13.4961 88.5271 13.4132 88.2759 13.2474C88.0246 13.08 87.8281 12.8441 87.6863 12.5399C87.5444 12.234 87.4735 11.8726 87.4735 11.4556C87.4735 11.042 87.5444 10.6831 87.6863 10.3789C87.8281 10.0747 88.0255 9.83972 88.2784 9.67395C88.5314 9.50817 88.8236 9.42529 89.1551 9.42529C89.4115 9.42529 89.614 9.46801 89.7627 9.55346C89.9131 9.6372 90.0276 9.73291 90.1062 9.84057C90.1865 9.94653 90.2489 10.0337 90.2933 10.102H90.3446V8.16406H90.9496V13.4141H90.3651V12.8091H90.2933C90.2489 12.8809 90.1857 12.9714 90.1036 13.0808C90.0216 13.1885 89.9045 13.285 89.7524 13.3705C89.6003 13.4542 89.3978 13.4961 89.1449 13.4961ZM89.2269 12.9526C89.4696 12.9526 89.6747 12.8894 89.8421 12.7629C90.0096 12.6348 90.1369 12.4579 90.2241 12.2323C90.3113 12.005 90.3548 11.7427 90.3548 11.4453C90.3548 11.1514 90.3121 10.8942 90.2267 10.6737C90.1412 10.4515 90.0148 10.2789 89.8473 10.1559C89.6798 10.0311 89.473 9.96875 89.2269 9.96875C88.9706 9.96875 88.7569 10.0345 88.586 10.1661C88.4169 10.296 88.2895 10.4729 88.2041 10.6968C88.1203 10.9189 88.0785 11.1685 88.0785 11.4453C88.0785 11.7256 88.1212 11.9802 88.2066 12.2092C88.2938 12.4365 88.422 12.6177 88.5912 12.7527C88.7621 12.886 88.974 12.9526 89.2269 12.9526ZM95.7715 13.4961C95.416 13.4961 95.1041 13.4115 94.8358 13.2423C94.5692 13.0731 94.3607 12.8364 94.2103 12.5322C94.0616 12.228 93.9873 11.8726 93.9873 11.4658C93.9873 11.0557 94.0616 10.6976 94.2103 10.3917C94.3607 10.0858 94.5692 9.84826 94.8358 9.67907C95.1041 9.50988 95.416 9.42529 95.7715 9.42529C96.1269 9.42529 96.438 9.50988 96.7046 9.67907C96.9729 9.84826 97.1814 10.0858 97.3301 10.3917C97.4805 10.6976 97.5557 11.0557 97.5557 11.4658C97.5557 11.8726 97.4805 12.228 97.3301 12.5322C97.1814 12.8364 96.9729 13.0731 96.7046 13.2423C96.438 13.4115 96.1269 13.4961 95.7715 13.4961ZM95.7715 12.9526C96.0415 12.9526 96.2637 12.8834 96.438 12.745C96.6123 12.6066 96.7413 12.4246 96.8251 12.199C96.9088 11.9734 96.9507 11.729 96.9507 11.4658C96.9507 11.2026 96.9088 10.9574 96.8251 10.7301C96.7413 10.5028 96.6123 10.3191 96.438 10.179C96.2637 10.0388 96.0415 9.96875 95.7715 9.96875C95.5015 9.96875 95.2793 10.0388 95.105 10.179C94.9307 10.3191 94.8016 10.5028 94.7179 10.7301C94.6341 10.9574 94.5923 11.2026 94.5923 11.4658C94.5923 11.729 94.6341 11.9734 94.7179 12.199C94.8016 12.4246 94.9307 12.6066 95.105 12.745C95.2793 12.8834 95.5015 12.9526 95.7715 12.9526ZM99.0841 11.0454V13.4141H98.4791V9.47656H99.0636V10.0918H99.1149C99.2072 9.89184 99.3473 9.7312 99.5353 9.60986C99.7233 9.48681 99.966 9.42529 100.263 9.42529C100.53 9.42529 100.763 9.47998 100.963 9.58935C101.163 9.69702 101.319 9.86108 101.43 10.0815C101.541 10.3003 101.596 10.5771 101.596 10.9121V13.4141H100.991V10.9531C100.991 10.6438 100.911 10.4028 100.75 10.2302C100.59 10.0559 100.369 9.96875 100.089 9.96875C99.8959 9.96875 99.7233 10.0106 99.5712 10.0944C99.4208 10.1781 99.302 10.3003 99.2149 10.4609C99.1277 10.6216 99.0841 10.8164 99.0841 11.0454ZM106.445 9.47656V9.98925H104.404V9.47656H106.445ZM104.999 8.5332H105.604V12.2861C105.604 12.457 105.628 12.5852 105.678 12.6707C105.729 12.7544 105.794 12.8108 105.873 12.8398C105.953 12.8672 106.038 12.8809 106.127 12.8809C106.193 12.8809 106.248 12.8774 106.291 12.8706C106.333 12.8621 106.368 12.8552 106.393 12.8501L106.516 13.3936C106.475 13.4089 106.418 13.4243 106.345 13.4397C106.271 13.4568 106.178 13.4653 106.065 13.4653C105.894 13.4653 105.727 13.4286 105.563 13.3551C105.4 13.2816 105.265 13.1697 105.158 13.0193C105.052 12.8689 104.999 12.6792 104.999 12.4502V8.5332ZM108.044 11.0454V13.4141H107.439V8.16406H108.044V10.0918H108.095C108.188 9.88842 108.326 9.72692 108.511 9.6073C108.697 9.48596 108.945 9.42529 109.254 9.42529C109.522 9.42529 109.757 9.47912 109.959 9.58679C110.161 9.69274 110.317 9.85595 110.428 10.0764C110.541 10.2952 110.597 10.5737 110.597 10.9121V13.4141H109.992V10.9531C109.992 10.6404 109.911 10.3986 109.749 10.2277C109.588 10.055 109.365 9.96875 109.08 9.96875C108.882 9.96875 108.704 10.0106 108.547 10.0944C108.391 10.1781 108.268 10.3003 108.177 10.4609C108.089 10.6216 108.044 10.8164 108.044 11.0454ZM113.355 13.4961C112.976 13.4961 112.648 13.4124 112.373 13.2449C112.1 13.0757 111.889 12.8398 111.74 12.5374C111.593 12.2332 111.52 11.8794 111.52 11.4761C111.52 11.0728 111.593 10.7173 111.74 10.4097C111.889 10.1003 112.095 9.85937 112.36 9.68676C112.627 9.51245 112.938 9.42529 113.293 9.42529C113.499 9.42529 113.701 9.45947 113.901 9.52783C114.101 9.59619 114.283 9.70727 114.447 9.86108C114.611 10.0132 114.742 10.2148 114.839 10.4661C114.937 10.7173 114.985 11.0266 114.985 11.394V11.6504H111.95V11.1274H114.37C114.37 10.9053 114.326 10.707 114.237 10.5327C114.15 10.3584 114.025 10.2208 113.863 10.12C113.702 10.0192 113.512 9.96875 113.293 9.96875C113.053 9.96875 112.844 10.0286 112.668 10.1482C112.494 10.2661 112.36 10.4199 112.266 10.6096C112.172 10.7993 112.125 11.0027 112.125 11.2197V11.5684C112.125 11.8657 112.176 12.1178 112.278 12.3246C112.383 12.5297 112.527 12.686 112.712 12.7937C112.896 12.8997 113.111 12.9526 113.355 12.9526C113.514 12.9526 113.658 12.9304 113.786 12.886C113.916 12.8398 114.028 12.7715 114.122 12.6809C114.215 12.5886 114.288 12.4741 114.339 12.3374L114.924 12.5015C114.862 12.6997 114.759 12.874 114.614 13.0244C114.468 13.1731 114.289 13.2893 114.075 13.373C113.862 13.4551 113.622 13.4961 113.355 13.4961Z" fill="#292929"/>
<path d="M58.5854 37.3633H56.8089L60.0434 28.1758H62.098L65.337 37.3633H63.5605L61.1066 30.0599H61.0348L58.5854 37.3633ZM58.6437 33.761H63.4887V35.0978H58.6437V33.761ZM66.4753 39.9473V30.4726H68.0724V31.6121H68.1666C68.2503 31.4446 68.3684 31.2667 68.521 31.0783C68.6735 30.8869 68.8799 30.7239 69.1401 30.5893C69.4002 30.4517 69.7322 30.3829 70.136 30.3829C70.6683 30.3829 71.1483 30.519 71.576 30.7912C72.0067 31.0603 72.3476 31.4596 72.5988 31.9889C72.853 32.5153 72.9801 33.1613 72.9801 33.9269C72.9801 34.6836 72.856 35.3266 72.6078 35.856C72.3596 36.3853 72.0216 36.7891 71.5939 37.0672C71.1663 37.3453 70.6818 37.4844 70.1405 37.4844C69.7457 37.4844 69.4182 37.4186 69.158 37.287C68.8978 37.1554 68.6885 36.9969 68.5299 36.8115C68.3744 36.6231 68.2533 36.4451 68.1666 36.2776H68.0993V39.9473H66.4753ZM68.0679 33.918C68.0679 34.3636 68.1307 34.7539 68.2563 35.0888C68.3849 35.4238 68.5688 35.6855 68.8081 35.8739C69.0503 36.0593 69.3434 36.152 69.6874 36.152C70.0462 36.152 70.3468 36.0563 70.5891 35.8649C70.8313 35.6705 71.0137 35.4059 71.1364 35.0709C71.262 34.7329 71.3248 34.3486 71.3248 33.918C71.3248 33.4903 71.2635 33.1105 71.1408 32.7785C71.0182 32.4465 70.8358 32.1863 70.5935 31.9979C70.3513 31.8095 70.0492 31.7153 69.6874 31.7153C69.3404 31.7153 69.0458 31.8065 68.8036 31.9889C68.5613 32.1714 68.3774 32.4271 68.2518 32.7561C68.1292 33.085 68.0679 33.4723 68.0679 33.918ZM74.3708 39.9473V30.4726H75.9679V31.6121H76.0621C76.1458 31.4446 76.264 31.2667 76.4165 31.0783C76.569 30.8869 76.7754 30.7239 77.0356 30.5893C77.2958 30.4517 77.6277 30.3829 78.0315 30.3829C78.5638 30.3829 79.0438 30.519 79.4715 30.7912C79.9022 31.0603 80.2431 31.4596 80.4943 31.9889C80.7486 32.5153 80.8757 33.1613 80.8757 33.9269C80.8757 34.6836 80.7515 35.3266 80.5033 35.856C80.2551 36.3853 79.9171 36.7891 79.4895 37.0672C79.0618 37.3453 78.5773 37.4844 78.036 37.4844C77.6412 37.4844 77.3137 37.4186 77.0535 37.287C76.7933 37.1554 76.584 36.9969 76.4255 36.8115C76.2699 36.6231 76.1488 36.4451 76.0621 36.2776H75.9948V39.9473H74.3708ZM75.9634 33.918C75.9634 34.3636 76.0262 34.7539 76.1518 35.0888C76.2804 35.4238 76.4643 35.6855 76.7036 35.8739C76.9458 36.0593 77.2389 36.152 77.5829 36.152C77.9418 36.152 78.2423 36.0563 78.4846 35.8649C78.7268 35.6705 78.9093 35.4059 79.0319 35.0709C79.1575 34.7329 79.2203 34.3486 79.2203 33.918C79.2203 33.4903 79.159 33.1105 79.0364 32.7785C78.9137 32.4465 78.7313 32.1863 78.4891 31.9979C78.2468 31.8095 77.9447 31.7153 77.5829 31.7153C77.2359 31.7153 76.9414 31.8065 76.6991 31.9889C76.4569 32.1714 76.2729 32.4271 76.1473 32.7561C76.0247 33.085 75.9634 33.4723 75.9634 33.918ZM90.4647 30.7014C90.4228 30.3097 90.2464 30.0046 89.9353 29.7863C89.6273 29.568 89.2265 29.4588 88.733 29.4588C88.3861 29.4588 88.0885 29.5111 87.8403 29.6158C87.5921 29.7205 87.4022 29.8625 87.2706 30.042C87.139 30.2214 87.0717 30.4263 87.0687 30.6566C87.0687 30.848 87.1121 31.014 87.1988 31.1545C87.2885 31.2951 87.4097 31.4147 87.5622 31.5134C87.7147 31.6091 87.8837 31.6899 88.0691 31.7557C88.2545 31.8215 88.4415 31.8768 88.6299 31.9217L89.4912 32.137C89.8381 32.2177 90.1716 32.3269 90.4916 32.4645C90.8146 32.602 91.1032 32.7755 91.3574 32.9849C91.6146 33.1942 91.818 33.4469 91.9675 33.743C92.1171 34.0391 92.1918 34.386 92.1918 34.7838C92.1918 35.3221 92.0542 35.7961 91.7791 36.2059C91.504 36.6126 91.1062 36.9311 90.5858 37.1614C90.0684 37.3887 89.4418 37.5024 88.7061 37.5024C87.9913 37.5024 87.3708 37.3917 86.8444 37.1704C86.321 36.9491 85.9113 36.6261 85.6152 36.2014C85.3221 35.7767 85.1636 35.2593 85.1397 34.6492H86.7771C86.801 34.9692 86.8997 35.2354 87.0732 35.4477C87.2467 35.6601 87.4725 35.8186 87.7506 35.9232C88.0317 36.0279 88.3457 36.0803 88.6927 36.0803C89.0545 36.0803 89.3716 36.0264 89.6437 35.9188C89.9189 35.8081 90.1342 35.6556 90.2897 35.4612C90.4452 35.2638 90.5245 35.0335 90.5275 34.7703C90.5245 34.5311 90.4542 34.3337 90.3166 34.1782C90.1791 34.0196 89.9862 33.8881 89.7379 33.7834C89.4927 33.6757 89.2056 33.58 88.8766 33.4963L87.8313 33.2271C87.0747 33.0327 86.4765 32.7381 86.0369 32.3433C85.6003 31.9456 85.3819 31.4177 85.3819 30.7598C85.3819 30.2184 85.5285 29.7444 85.8216 29.3377C86.1177 28.9309 86.5199 28.6154 87.0283 28.3911C87.5368 28.1638 88.1125 28.0502 88.7555 28.0502C89.4075 28.0502 89.9787 28.1638 90.4692 28.3911C90.9626 28.6154 91.3499 28.9279 91.6311 29.3287C91.9122 29.7265 92.0572 30.184 92.0662 30.7014H90.4647ZM97.0446 30.4726V31.7288H93.0834V30.4726H97.0446ZM94.0614 28.8218H95.6854V35.2907C95.6854 35.509 95.7183 35.6765 95.7841 35.7932C95.8528 35.9068 95.9426 35.9846 96.0532 36.0264C96.1639 36.0683 96.2865 36.0892 96.4211 36.0892C96.5228 36.0892 96.6155 36.0818 96.6992 36.0668C96.786 36.0518 96.8517 36.0384 96.8966 36.0264L97.1703 37.296C97.0835 37.3259 96.9594 37.3588 96.7979 37.3947C96.6394 37.4306 96.445 37.4515 96.2147 37.4575C95.808 37.4695 95.4416 37.4081 95.1156 37.2736C94.7896 37.136 94.5309 36.9236 94.3395 36.6365C94.1511 36.3494 94.0584 35.9905 94.0614 35.5599V28.8218ZM101.334 37.4979C100.662 37.4979 100.078 37.3498 99.5849 37.0537C99.0914 36.7577 98.7086 36.3434 98.4365 35.8111C98.1673 35.2787 98.0327 34.6567 98.0327 33.9449C98.0327 33.2331 98.1673 32.6095 98.4365 32.0742C98.7086 31.5388 99.0914 31.1231 99.5849 30.827C100.078 30.531 100.662 30.3829 101.334 30.3829C102.007 30.3829 102.591 30.531 103.084 30.827C103.578 31.1231 103.959 31.5388 104.228 32.0742C104.5 32.6095 104.636 33.2331 104.636 33.9449C104.636 34.6567 104.5 35.2787 104.228 35.8111C103.959 36.3434 103.578 36.7577 103.084 37.0537C102.591 37.3498 102.007 37.4979 101.334 37.4979ZM101.343 36.1969C101.708 36.1969 102.013 36.0967 102.259 35.8963C102.504 35.693 102.686 35.4208 102.806 35.0799C102.929 34.7389 102.99 34.3591 102.99 33.9404C102.99 33.5187 102.929 33.1374 102.806 32.7964C102.686 32.4525 102.504 32.1789 102.259 31.9755C102.013 31.7721 101.708 31.6704 101.343 31.6704C100.97 31.6704 100.659 31.7721 100.41 31.9755C100.165 32.1789 99.9812 32.4525 99.8585 32.7964C99.7389 33.1374 99.6791 33.5187 99.6791 33.9404C99.6791 34.3591 99.7389 34.7389 99.8585 35.0799C99.9812 35.4208 100.165 35.693 100.41 35.8963C100.659 36.0967 100.97 36.1969 101.343 36.1969ZM106.015 37.3633V30.4726H107.589V31.6211H107.661C107.787 31.2233 108.002 30.9168 108.307 30.7014C108.615 30.4831 108.966 30.374 109.361 30.374C109.451 30.374 109.551 30.3784 109.662 30.3874C109.775 30.3934 109.87 30.4039 109.944 30.4188V31.9127C109.876 31.8888 109.766 31.8678 109.617 31.8499C109.47 31.8289 109.328 31.8185 109.191 31.8185C108.895 31.8185 108.628 31.8828 108.392 32.0114C108.159 32.137 107.975 32.3119 107.84 32.5362C107.706 32.7606 107.639 33.0193 107.639 33.3123V37.3633H106.015ZM113.79 37.4979C113.099 37.4979 112.503 37.3543 112 37.0672C111.501 36.7771 111.116 36.3674 110.847 35.838C110.578 35.3057 110.443 34.6791 110.443 33.9583C110.443 33.2495 110.578 32.6275 110.847 32.0921C111.119 31.5538 111.499 31.1351 111.987 30.836C112.474 30.534 113.047 30.3829 113.705 30.3829C114.13 30.3829 114.53 30.4517 114.907 30.5893C115.287 30.7239 115.622 30.9332 115.912 31.2173C116.205 31.5015 116.435 31.8633 116.603 32.303C116.77 32.7396 116.854 33.26 116.854 33.8641V34.3621H111.206V33.2675H115.297C115.294 32.9564 115.227 32.6798 115.096 32.4376C114.964 32.1923 114.78 31.9994 114.544 31.8588C114.31 31.7183 114.038 31.648 113.727 31.648C113.395 31.648 113.104 31.7288 112.853 31.8903C112.601 32.0488 112.405 32.2581 112.265 32.5183C112.127 32.7755 112.057 33.0581 112.054 33.3662V34.3217C112.054 34.7225 112.127 35.0664 112.274 35.3535C112.42 35.6376 112.625 35.856 112.888 36.0085C113.152 36.158 113.46 36.2328 113.813 36.2328C114.049 36.2328 114.263 36.1999 114.454 36.1341C114.645 36.0653 114.811 35.9651 114.952 35.8335C115.093 35.7019 115.199 35.5389 115.271 35.3445L116.787 35.515C116.691 35.9158 116.509 36.2657 116.24 36.5648C115.973 36.8608 115.632 37.0911 115.217 37.2556C114.801 37.4171 114.325 37.4979 113.79 37.4979Z" fill="#292929"/>
</svg>
