<svg width="150" height="48" viewBox="0 0 150 48" fill="none" xmlns="http://www.w3.org/2000/svg">
<rect x="0.486022" y="0.548828" width="148.189" height="46.0196" stroke="#292929" stroke-width="0.902345"/>
<path d="M59.7597 13.4141H58.1396V8.16406H59.8315C60.3407 8.16406 60.7765 8.26916 61.1388 8.47936C61.5011 8.68786 61.7788 8.98779 61.972 9.37915C62.1651 9.76879 62.2616 10.2353 62.2616 10.7788C62.2616 11.3257 62.1642 11.7965 61.9694 12.1913C61.7746 12.5843 61.4909 12.8868 61.1183 13.0988C60.7458 13.309 60.2929 13.4141 59.7597 13.4141ZM58.7753 12.8501H59.7187C60.1527 12.8501 60.5125 12.7664 60.7979 12.5989C61.0833 12.4314 61.2961 12.193 61.4362 11.8837C61.5763 11.5743 61.6464 11.2061 61.6464 10.7788C61.6464 10.355 61.5772 9.99011 61.4388 9.6842C61.3003 9.37658 61.0935 9.14074 60.8184 8.97668C60.5432 8.81091 60.2006 8.72802 59.7904 8.72802H58.7753V12.8501ZM64.8456 13.4961C64.4902 13.4961 64.1783 13.4115 63.9099 13.2423C63.6433 13.0731 63.4349 12.8364 63.2845 12.5322C63.1358 12.228 63.0614 11.8726 63.0614 11.4658C63.0614 11.0557 63.1358 10.6976 63.2845 10.3917C63.4349 10.0858 63.6433 9.84826 63.9099 9.67907C64.1783 9.50988 64.4902 9.42529 64.8456 9.42529C65.2011 9.42529 65.5121 9.50988 65.7787 9.67907C66.047 9.84826 66.2555 10.0858 66.4042 10.3917C66.5546 10.6976 66.6298 11.0557 66.6298 11.4658C66.6298 11.8726 66.5546 12.228 66.4042 12.5322C66.2555 12.8364 66.047 13.0731 65.7787 13.2423C65.5121 13.4115 65.2011 13.4961 64.8456 13.4961ZM64.8456 12.9526C65.1156 12.9526 65.3378 12.8834 65.5121 12.745C65.6864 12.6066 65.8155 12.4246 65.8992 12.199C65.983 11.9734 66.0248 11.729 66.0248 11.4658C66.0248 11.2026 65.983 10.9574 65.8992 10.7301C65.8155 10.5028 65.6864 10.3191 65.5121 10.179C65.3378 10.0388 65.1156 9.96875 64.8456 9.96875C64.5756 9.96875 64.3534 10.0388 64.1791 10.179C64.0048 10.3191 63.8758 10.5028 63.792 10.7301C63.7083 10.9574 63.6664 11.2026 63.6664 11.4658C63.6664 11.729 63.7083 11.9734 63.792 12.199C63.8758 12.4246 64.0048 12.6066 64.1791 12.745C64.3534 12.8834 64.5756 12.9526 64.8456 12.9526ZM68.3114 13.4141L67.1117 9.47656H67.7475L68.5986 12.4912H68.6396L69.4804 9.47656H70.1264L70.957 12.481H70.998L71.849 9.47656H72.4848L71.2851 13.4141H70.6904L69.829 10.3892H69.7675L68.9062 13.4141H68.3114ZM73.8896 11.0454V13.4141H73.2846V9.47656H73.8691V10.0918H73.9203C74.0126 9.89184 74.1528 9.7312 74.3407 9.60986C74.5287 9.48681 74.7714 9.42529 75.0688 9.42529C75.3354 9.42529 75.5687 9.47998 75.7686 9.58935C75.9686 9.69702 76.1241 9.86108 76.2352 10.0815C76.3462 10.3003 76.4018 10.5771 76.4018 10.9121V13.4141H75.7968V10.9531C75.7968 10.6438 75.7165 10.4028 75.5558 10.2302C75.3952 10.0559 75.1747 9.96875 74.8945 9.96875C74.7013 9.96875 74.5287 10.0106 74.3766 10.0944C74.2262 10.1781 74.1075 10.3003 74.0203 10.4609C73.9332 10.6216 73.8896 10.8164 73.8896 11.0454ZM78.1123 8.16406V13.4141H77.5073V8.16406H78.1123ZM80.8199 13.4961C80.4645 13.4961 80.1526 13.4115 79.8843 13.2423C79.6177 13.0731 79.4092 12.8364 79.2588 12.5322C79.1101 12.228 79.0358 11.8726 79.0358 11.4658C79.0358 11.0557 79.1101 10.6976 79.2588 10.3917C79.4092 10.0858 79.6177 9.84826 79.8843 9.67907C80.1526 9.50988 80.4645 9.42529 80.8199 9.42529C81.1754 9.42529 81.4864 9.50988 81.753 9.67907C82.0214 9.84826 82.2299 10.0858 82.3785 10.3917C82.5289 10.6976 82.6041 11.0557 82.6041 11.4658C82.6041 11.8726 82.5289 12.228 82.3785 12.5322C82.2299 12.8364 82.0214 13.0731 81.753 13.2423C81.4864 13.4115 81.1754 13.4961 80.8199 13.4961ZM80.8199 12.9526C81.09 12.9526 81.3121 12.8834 81.4864 12.745C81.6608 12.6066 81.7898 12.4246 81.8735 12.199C81.9573 11.9734 81.9991 11.729 81.9991 11.4658C81.9991 11.2026 81.9573 10.9574 81.8735 10.7301C81.7898 10.5028 81.6608 10.3191 81.4864 10.179C81.3121 10.0388 81.09 9.96875 80.8199 9.96875C80.5499 9.96875 80.3278 10.0388 80.1534 10.179C79.9791 10.3191 79.8501 10.5028 79.7664 10.7301C79.6826 10.9574 79.6407 11.2026 79.6407 11.4658C79.6407 11.729 79.6826 11.9734 79.7664 12.199C79.8501 12.4246 79.9791 12.6066 80.1534 12.745C80.3278 12.8834 80.5499 12.9526 80.8199 12.9526ZM84.6863 13.5063C84.4368 13.5063 84.2104 13.4594 84.007 13.3654C83.8036 13.2697 83.6421 13.1321 83.5225 12.9526C83.4029 12.7715 83.343 12.5527 83.343 12.2964C83.343 12.0708 83.3875 11.8879 83.4763 11.7478C83.5652 11.606 83.684 11.4949 83.8327 11.4145C83.9814 11.3342 84.1454 11.2744 84.3249 11.2351C84.506 11.1941 84.688 11.1616 84.8709 11.1377C85.1101 11.1069 85.3041 11.0839 85.4528 11.0685C85.6032 11.0514 85.7126 11.0232 85.7809 10.9839C85.851 10.9446 85.886 10.8762 85.886 10.7788V10.7583C85.886 10.5054 85.8168 10.3088 85.6784 10.1687C85.5417 10.0286 85.334 9.95849 85.0555 9.95849C84.7666 9.95849 84.5402 10.0217 84.3761 10.1482C84.2121 10.2747 84.0967 10.4097 84.0301 10.5532L83.4558 10.3481C83.5584 10.1089 83.6951 9.9226 83.866 9.7893C84.0386 9.65429 84.2266 9.5603 84.43 9.50732C84.635 9.45263 84.8367 9.42529 85.0349 9.42529C85.1614 9.42529 85.3067 9.44067 85.4707 9.47143C85.6365 9.50048 85.7963 9.56115 85.9501 9.65344C86.1056 9.74572 86.2347 9.88501 86.3372 10.0713C86.4397 10.2576 86.491 10.5071 86.491 10.8198V13.4141H85.886V12.8809H85.8553C85.8142 12.9663 85.7459 13.0577 85.6502 13.1552C85.5545 13.2526 85.4272 13.3354 85.2682 13.4038C85.1093 13.4722 84.9153 13.5063 84.6863 13.5063ZM84.7786 12.9629C85.0179 12.9629 85.2195 12.9159 85.3836 12.8219C85.5493 12.7279 85.6741 12.6066 85.7578 12.4579C85.8433 12.3092 85.886 12.1528 85.886 11.9888V11.4351C85.8604 11.4658 85.804 11.494 85.7168 11.5197C85.6314 11.5436 85.5323 11.5649 85.4195 11.5837C85.3084 11.6008 85.1999 11.6162 85.0939 11.6299C84.9897 11.6418 84.9051 11.6521 84.8401 11.6606C84.6829 11.6812 84.5359 11.7145 84.3992 11.7606C84.2642 11.8051 84.1548 11.8726 84.0711 11.9631C83.989 12.052 83.948 12.1733 83.948 12.3271C83.948 12.5374 84.0258 12.6963 84.1813 12.804C84.3385 12.9099 84.5376 12.9629 84.7786 12.9629ZM89.082 13.4961C88.7539 13.4961 88.4642 13.4132 88.213 13.2474C87.9618 13.08 87.7653 12.8441 87.6234 12.5399C87.4816 12.234 87.4106 11.8726 87.4106 11.4556C87.4106 11.042 87.4816 10.6831 87.6234 10.3789C87.7653 10.0747 87.9627 9.83972 88.2156 9.67395C88.4685 9.50817 88.7607 9.42529 89.0923 9.42529C89.3486 9.42529 89.5512 9.46801 89.6998 9.55346C89.8502 9.6372 89.9647 9.73291 90.0433 9.84057C90.1237 9.94653 90.186 10.0337 90.2305 10.102H90.2817V8.16406H90.8867V13.4141H90.3023V12.8091H90.2305C90.186 12.8809 90.1228 12.9714 90.0408 13.0808C89.9587 13.1885 89.8417 13.285 89.6896 13.3705C89.5375 13.4542 89.335 13.4961 89.082 13.4961ZM89.1641 12.9526C89.4067 12.9526 89.6118 12.8894 89.7793 12.7629C89.9468 12.6348 90.0741 12.4579 90.1613 12.2323C90.2484 12.005 90.292 11.7427 90.292 11.4453C90.292 11.1514 90.2493 10.8942 90.1638 10.6737C90.0784 10.4515 89.9519 10.2789 89.7844 10.1559C89.617 10.0311 89.4102 9.96875 89.1641 9.96875C88.9077 9.96875 88.6941 10.0345 88.5232 10.1661C88.354 10.296 88.2267 10.4729 88.1412 10.6968C88.0575 10.9189 88.0156 11.1685 88.0156 11.4453C88.0156 11.7256 88.0584 11.9802 88.1438 12.2092C88.231 12.4365 88.3591 12.6177 88.5283 12.7527C88.6992 12.886 88.9111 12.9526 89.1641 12.9526ZM95.7086 13.4961C95.3532 13.4961 95.0413 13.4115 94.773 13.2423C94.5064 13.0731 94.2979 12.8364 94.1475 12.5322C93.9988 12.228 93.9245 11.8726 93.9245 11.4658C93.9245 11.0557 93.9988 10.6976 94.1475 10.3917C94.2979 10.0858 94.5064 9.84826 94.773 9.67907C95.0413 9.50988 95.3532 9.42529 95.7086 9.42529C96.0641 9.42529 96.3751 9.50988 96.6417 9.67907C96.91 9.84826 97.1185 10.0858 97.2672 10.3917C97.4176 10.6976 97.4928 11.0557 97.4928 11.4658C97.4928 11.8726 97.4176 12.228 97.2672 12.5322C97.1185 12.8364 96.91 13.0731 96.6417 13.2423C96.3751 13.4115 96.0641 13.4961 95.7086 13.4961ZM95.7086 12.9526C95.9787 12.9526 96.2008 12.8834 96.3751 12.745C96.5495 12.6066 96.6785 12.4246 96.7622 12.199C96.846 11.9734 96.8878 11.729 96.8878 11.4658C96.8878 11.2026 96.846 10.9574 96.7622 10.7301C96.6785 10.5028 96.5495 10.3191 96.3751 10.179C96.2008 10.0388 95.9787 9.96875 95.7086 9.96875C95.4386 9.96875 95.2164 10.0388 95.0421 10.179C94.8678 10.3191 94.7388 10.5028 94.655 10.7301C94.5713 10.9574 94.5294 11.2026 94.5294 11.4658C94.5294 11.729 94.5713 11.9734 94.655 12.199C94.7388 12.4246 94.8678 12.6066 95.0421 12.745C95.2164 12.8834 95.4386 12.9526 95.7086 12.9526ZM99.0213 11.0454V13.4141H98.4163V9.47656H99.0008V10.0918H99.052C99.1443 9.89184 99.2845 9.7312 99.4725 9.60986C99.6604 9.48681 99.9031 9.42529 100.2 9.42529C100.467 9.42529 100.7 9.47998 100.9 9.58935C101.1 9.69702 101.256 9.86108 101.367 10.0815C101.478 10.3003 101.533 10.5771 101.533 10.9121V13.4141H100.929V10.9531C100.929 10.6438 100.848 10.4028 100.688 10.2302C100.527 10.0559 100.306 9.96875 100.026 9.96875C99.8331 9.96875 99.6604 10.0106 99.5083 10.0944C99.358 10.1781 99.2392 10.3003 99.152 10.4609C99.0649 10.6216 99.0213 10.8164 99.0213 11.0454ZM106.382 9.47656V9.98925H104.341V9.47656H106.382ZM104.936 8.5332H105.541V12.2861C105.541 12.457 105.566 12.5852 105.615 12.6707C105.666 12.7544 105.731 12.8108 105.81 12.8398C105.89 12.8672 105.975 12.8809 106.064 12.8809C106.13 12.8809 106.185 12.8774 106.228 12.8706C106.271 12.8621 106.305 12.8552 106.33 12.8501L106.453 13.3936C106.412 13.4089 106.355 13.4243 106.282 13.4397C106.208 13.4568 106.115 13.4653 106.002 13.4653C105.831 13.4653 105.664 13.4286 105.5 13.3551C105.337 13.2816 105.202 13.1697 105.095 13.0193C104.989 12.8689 104.936 12.6792 104.936 12.4502V8.5332ZM107.981 11.0454V13.4141H107.376V8.16406H107.981V10.0918H108.033C108.125 9.88842 108.263 9.72692 108.448 9.6073C108.634 9.48596 108.882 9.42529 109.191 9.42529C109.46 9.42529 109.695 9.47912 109.896 9.58679C110.098 9.69274 110.254 9.85595 110.365 10.0764C110.478 10.2952 110.535 10.5737 110.535 10.9121V13.4141H109.93V10.9531C109.93 10.6404 109.848 10.3986 109.686 10.2277C109.525 10.055 109.302 9.96875 109.017 9.96875C108.819 9.96875 108.641 10.0106 108.484 10.0944C108.328 10.1781 108.205 10.3003 108.115 10.4609C108.026 10.6216 107.981 10.8164 107.981 11.0454ZM113.292 13.4961C112.913 13.4961 112.586 13.4124 112.31 13.2449C112.037 13.0757 111.826 12.8398 111.677 12.5374C111.53 12.2332 111.457 11.8794 111.457 11.4761C111.457 11.0728 111.53 10.7173 111.677 10.4097C111.826 10.1003 112.033 9.85937 112.298 9.68676C112.564 9.51245 112.875 9.42529 113.231 9.42529C113.436 9.42529 113.638 9.45947 113.838 9.52783C114.038 9.59619 114.22 9.70727 114.384 9.86108C114.548 10.0132 114.679 10.2148 114.776 10.4661C114.874 10.7173 114.923 11.0266 114.923 11.394V11.6504H111.887V11.1274H114.307C114.307 10.9053 114.263 10.707 114.174 10.5327C114.087 10.3584 113.962 10.2208 113.8 10.12C113.639 10.0192 113.449 9.96875 113.231 9.96875C112.99 9.96875 112.781 10.0286 112.605 10.1482C112.431 10.2661 112.297 10.4199 112.203 10.6096C112.109 10.7993 112.062 11.0027 112.062 11.2197V11.5684C112.062 11.8657 112.113 12.1178 112.216 12.3246C112.32 12.5297 112.464 12.686 112.649 12.7937C112.833 12.8997 113.048 12.9526 113.292 12.9526C113.451 12.9526 113.595 12.9304 113.723 12.886C113.853 12.8398 113.965 12.7715 114.059 12.6809C114.153 12.5886 114.225 12.4741 114.277 12.3374L114.861 12.5015C114.8 12.6997 114.696 12.874 114.551 13.0244C114.406 13.1731 114.226 13.2893 114.013 13.373C113.799 13.4551 113.559 13.4961 113.292 13.4961Z" fill="#292929"/>
<path d="M63.4976 31.1097C63.4229 30.8674 63.3197 30.6506 63.1881 30.4592C63.0595 30.2648 62.904 30.0988 62.7215 29.9612C62.5421 29.8237 62.3357 29.7205 62.1025 29.6517C61.8692 29.5799 61.615 29.544 61.3398 29.544C60.8463 29.544 60.4067 29.6681 60.0209 29.9164C59.6351 30.1646 59.3315 30.5295 59.1102 31.011C58.8919 31.4895 58.7827 32.0727 58.7827 32.7606C58.7827 33.4544 58.8919 34.0421 59.1102 34.5236C59.3286 35.0051 59.6321 35.3715 60.0209 35.6227C60.4097 35.8709 60.8613 35.995 61.3757 35.995C61.8423 35.995 62.246 35.9053 62.587 35.7259C62.9309 35.5464 63.1956 35.2922 63.381 34.9632C63.5664 34.6313 63.6591 34.2425 63.6591 33.7968L64.036 33.8552H61.5417V32.5542H65.2696V33.6578C65.2696 34.4443 65.1022 35.1247 64.7672 35.6989C64.4322 36.2732 63.9717 36.7158 63.3855 37.0268C62.7993 37.3349 62.1264 37.4889 61.3667 37.4889C60.5204 37.4889 59.7772 37.299 59.1371 36.9192C58.5001 36.5363 58.0022 35.9935 57.6433 35.2907C57.2874 34.5849 57.1094 33.7475 57.1094 32.7785C57.1094 32.0368 57.2141 31.3744 57.4235 30.7912C57.6358 30.208 57.9319 29.713 58.3117 29.3063C58.6915 28.8965 59.1371 28.5855 59.6486 28.3732C60.16 28.1578 60.7163 28.0502 61.3174 28.0502C61.8258 28.0502 62.2998 28.1249 62.7395 28.2745C63.1791 28.421 63.5694 28.6304 63.9103 28.9025C64.2543 29.1747 64.5369 29.4977 64.7582 29.8715C64.9795 30.2454 65.1246 30.6581 65.1934 31.1097H63.4976ZM69.8129 37.4979C69.14 37.4979 68.5568 37.3498 68.0633 37.0537C67.5699 36.7577 67.1871 36.3434 66.9149 35.8111C66.6457 35.2787 66.5112 34.6567 66.5112 33.9449C66.5112 33.2331 66.6457 32.6095 66.9149 32.0742C67.1871 31.5388 67.5699 31.1231 68.0633 30.827C68.5568 30.531 69.14 30.3829 69.8129 30.3829C70.4858 30.3829 71.069 30.531 71.5625 30.827C72.056 31.1231 72.4373 31.5388 72.7064 32.0742C72.9786 32.6095 73.1147 33.2331 73.1147 33.9449C73.1147 34.6567 72.9786 35.2787 72.7064 35.8111C72.4373 36.3434 72.056 36.7577 71.5625 37.0537C71.069 37.3498 70.4858 37.4979 69.8129 37.4979ZM69.8219 36.1969C70.1868 36.1969 70.4918 36.0967 70.7371 35.8963C70.9823 35.693 71.1647 35.4208 71.2844 35.0799C71.407 34.7389 71.4683 34.3591 71.4683 33.9404C71.4683 33.5187 71.407 33.1374 71.2844 32.7964C71.1647 32.4525 70.9823 32.1789 70.7371 31.9755C70.4918 31.7721 70.1868 31.6704 69.8219 31.6704C69.4481 31.6704 69.137 31.7721 68.8888 31.9755C68.6435 32.1789 68.4596 32.4525 68.337 32.7964C68.2174 33.1374 68.1576 33.5187 68.1576 33.9404C68.1576 34.3591 68.2174 34.7389 68.337 35.0799C68.4596 35.4208 68.6435 35.693 68.8888 35.8963C69.137 36.0967 69.4481 36.1969 69.8219 36.1969ZM77.4987 37.4979C76.8258 37.4979 76.2426 37.3498 75.7491 37.0537C75.2557 36.7577 74.8729 36.3434 74.6007 35.8111C74.3315 35.2787 74.1969 34.6567 74.1969 33.9449C74.1969 33.2331 74.3315 32.6095 74.6007 32.0742C74.8729 31.5388 75.2557 31.1231 75.7491 30.827C76.2426 30.531 76.8258 30.3829 77.4987 30.3829C78.1716 30.3829 78.7548 30.531 79.2483 30.827C79.7418 31.1231 80.1231 31.5388 80.3922 32.0742C80.6644 32.6095 80.8005 33.2331 80.8005 33.9449C80.8005 34.6567 80.6644 35.2787 80.3922 35.8111C80.1231 36.3434 79.7418 36.7577 79.2483 37.0537C78.7548 37.3498 78.1716 37.4979 77.4987 37.4979ZM77.5077 36.1969C77.8726 36.1969 78.1776 36.0967 78.4228 35.8963C78.6681 35.693 78.8505 35.4208 78.9701 35.0799C79.0928 34.7389 79.1541 34.3591 79.1541 33.9404C79.1541 33.5187 79.0928 33.1374 78.9701 32.7964C78.8505 32.4525 78.6681 32.1789 78.4228 31.9755C78.1776 31.7721 77.8726 31.6704 77.5077 31.6704C77.1338 31.6704 76.8228 31.7721 76.5746 31.9755C76.3293 32.1789 76.1454 32.4525 76.0228 32.7964C75.9032 33.1374 75.8433 33.5187 75.8433 33.9404C75.8433 34.3591 75.9032 34.7389 76.0228 35.0799C76.1454 35.4208 76.3293 35.693 76.5746 35.8963C76.8228 36.0967 77.1338 36.1969 77.5077 36.1969ZM85.1755 40.0908C84.5923 40.0908 84.0914 40.0116 83.6727 39.8531C83.254 39.6975 82.9175 39.4882 82.6633 39.225C82.4091 38.9618 82.2327 38.6702 82.134 38.3502L83.5964 37.9958C83.6622 38.1304 83.7579 38.2635 83.8835 38.3951C84.0091 38.5297 84.1781 38.6403 84.3905 38.7271C84.6058 38.8168 84.8765 38.8616 85.2024 38.8616C85.663 38.8616 86.0443 38.7495 86.3464 38.5252C86.6485 38.3039 86.7995 37.939 86.7995 37.4306V36.1251H86.7187C86.635 36.2926 86.5124 36.4646 86.3509 36.641C86.1924 36.8175 85.9815 36.9655 85.7183 37.0851C85.4582 37.2048 85.1307 37.2646 84.7359 37.2646C84.2065 37.2646 83.7265 37.1405 83.2959 36.8922C82.8682 36.641 82.5272 36.2672 82.273 35.7707C82.0218 35.2713 81.8962 34.6462 81.8962 33.8955C81.8962 33.1389 82.0218 32.5004 82.273 31.98C82.5272 31.4566 82.8697 31.0603 83.3003 30.7912C83.731 30.519 84.211 30.3829 84.7404 30.3829C85.1441 30.3829 85.4761 30.4517 85.7363 30.5893C85.9995 30.7239 86.2088 30.8869 86.3643 31.0783C86.5199 31.2667 86.638 31.4446 86.7187 31.6121H86.8085V30.4726H88.41V37.4754C88.41 38.0646 88.2694 38.5521 87.9883 38.9379C87.7072 39.3237 87.3229 39.6123 86.8354 39.8037C86.3479 39.9951 85.7946 40.0908 85.1755 40.0908ZM85.189 35.9905C85.5329 35.9905 85.826 35.9068 86.0683 35.7393C86.3105 35.5718 86.4944 35.3311 86.6201 35.0171C86.7457 34.703 86.8085 34.3262 86.8085 33.8866C86.8085 33.4529 86.7457 33.0731 86.6201 32.7471C86.4974 32.4211 86.315 32.1684 86.0727 31.9889C85.8335 31.8065 85.5389 31.7153 85.189 31.7153C84.8271 31.7153 84.525 31.8095 84.2828 31.9979C84.0405 32.1863 83.8581 32.445 83.7355 32.774C83.6129 33.1 83.5516 33.4709 83.5516 33.8866C83.5516 34.3083 83.6129 34.6776 83.7355 34.9946C83.8611 35.3087 84.045 35.5539 84.2873 35.7303C84.5325 35.9038 84.8331 35.9905 85.189 35.9905ZM91.6983 28.1758V37.3633H90.0743V28.1758H91.6983ZM96.4188 37.4979C95.7279 37.4979 95.1313 37.3543 94.6288 37.0672C94.1294 36.7771 93.7451 36.3674 93.4759 35.838C93.2068 35.3057 93.0722 34.6791 93.0722 33.9583C93.0722 33.2495 93.2068 32.6275 93.4759 32.0921C93.7481 31.5538 94.1279 31.1351 94.6154 30.836C95.1029 30.534 95.6756 30.3829 96.3336 30.3829C96.7582 30.3829 97.159 30.4517 97.5358 30.5893C97.9157 30.7239 98.2506 30.9332 98.5407 31.2173C98.8338 31.5015 99.0641 31.8633 99.2316 32.303C99.3991 32.7396 99.4828 33.26 99.4828 33.8641V34.3621H93.8348V33.2675H97.9261C97.9231 32.9564 97.8558 32.6798 97.7242 32.4376C97.5927 32.1923 97.4087 31.9994 97.1725 31.8588C96.9392 31.7183 96.667 31.648 96.356 31.648C96.024 31.648 95.7324 31.7288 95.4812 31.8903C95.23 32.0488 95.0341 32.2581 94.8935 32.5183C94.7559 32.7755 94.6857 33.0581 94.6827 33.3662V34.3217C94.6827 34.7225 94.7559 35.0664 94.9025 35.3535C95.049 35.6376 95.2539 35.856 95.5171 36.0085C95.7803 36.158 96.0883 36.2328 96.4412 36.2328C96.6775 36.2328 96.8913 36.1999 97.0827 36.1341C97.2741 36.0653 97.4401 35.9651 97.5807 35.8335C97.7213 35.7019 97.8274 35.5389 97.8992 35.3445L99.4155 35.515C99.3198 35.9158 99.1374 36.2657 98.8682 36.5648C98.602 36.8608 98.2611 37.0911 97.8454 37.2556C97.4297 37.4171 96.9541 37.4979 96.4188 37.4979ZM104.062 37.3633V28.1758H107.507C108.213 28.1758 108.805 28.3074 109.284 28.5705C109.765 28.8337 110.129 29.1956 110.374 29.6562C110.622 30.1138 110.746 30.6341 110.746 31.2173C110.746 31.8065 110.622 32.3299 110.374 32.7875C110.126 33.2451 109.759 33.6054 109.275 33.8686C108.79 34.1288 108.194 34.2589 107.485 34.2589H105.201V32.8907H107.261C107.673 32.8907 108.011 32.8189 108.274 32.6753C108.538 32.5318 108.732 32.3344 108.858 32.0832C108.986 31.8319 109.05 31.5433 109.05 31.2173C109.05 30.8914 108.986 30.6042 108.858 30.356C108.732 30.1078 108.536 29.9149 108.27 29.7773C108.007 29.6367 107.667 29.5665 107.252 29.5665H105.726V37.3633H104.062ZM113.744 28.1758V37.3633H112.12V28.1758H113.744ZM117.397 37.5024C116.96 37.5024 116.567 37.4246 116.217 37.2691C115.87 37.1106 115.595 36.8773 115.392 36.5692C115.191 36.2612 115.091 35.8814 115.091 35.4298C115.091 35.041 115.163 34.7195 115.306 34.4653C115.45 34.2111 115.646 34.0077 115.894 33.8552C116.142 33.7026 116.422 33.5875 116.733 33.5097C117.047 33.429 117.371 33.3707 117.706 33.3348C118.11 33.2929 118.438 33.2555 118.689 33.2226C118.94 33.1867 119.123 33.1329 119.236 33.0611C119.353 32.9864 119.411 32.8712 119.411 32.7157V32.6888C119.411 32.3508 119.311 32.0891 119.111 31.9037C118.91 31.7183 118.622 31.6256 118.245 31.6256C117.847 31.6256 117.531 31.7123 117.298 31.8858C117.068 32.0592 116.912 32.2641 116.832 32.5004L115.315 32.285C115.435 31.8663 115.632 31.5164 115.907 31.2353C116.183 30.9512 116.519 30.7388 116.917 30.5983C117.315 30.4547 117.754 30.3829 118.236 30.3829C118.568 30.3829 118.898 30.4218 119.227 30.4996C119.556 30.5773 119.857 30.7059 120.129 30.8854C120.401 31.0618 120.619 31.3026 120.784 31.6076C120.951 31.9127 121.035 32.294 121.035 32.7516V37.3633H119.474V36.4167H119.42C119.321 36.6081 119.182 36.7876 119.003 36.955C118.826 37.1195 118.604 37.2526 118.334 37.3543C118.068 37.453 117.756 37.5024 117.397 37.5024ZM117.819 36.3091C118.145 36.3091 118.427 36.2447 118.666 36.1161C118.906 35.9846 119.09 35.8111 119.218 35.5958C119.35 35.3804 119.416 35.1457 119.416 34.8914V34.0795C119.365 34.1213 119.278 34.1602 119.155 34.1961C119.036 34.232 118.901 34.2634 118.752 34.2903C118.602 34.3172 118.454 34.3412 118.308 34.3621C118.161 34.383 118.034 34.401 117.926 34.4159C117.684 34.4488 117.467 34.5027 117.276 34.5774C117.084 34.6522 116.933 34.7569 116.823 34.8914C116.712 35.023 116.657 35.1935 116.657 35.4029C116.657 35.7019 116.766 35.9277 116.984 36.0803C117.202 36.2328 117.481 36.3091 117.819 36.3091ZM123.431 39.9473C123.209 39.9473 123.004 39.9293 122.816 39.8934C122.631 39.8605 122.483 39.8217 122.372 39.7768L122.749 38.5117C122.985 38.5805 123.196 38.6134 123.381 38.6104C123.567 38.6074 123.73 38.5491 123.87 38.4355C124.014 38.3248 124.135 38.1394 124.234 37.8792L124.373 37.5068L121.874 30.4726H123.597L125.185 35.6765H125.256L126.849 30.4726H128.576L125.817 38.1977C125.689 38.5626 125.518 38.8751 125.306 39.1353C125.094 39.3985 124.833 39.5988 124.525 39.7364C124.22 39.877 123.855 39.9473 123.431 39.9473Z" fill="#292929"/>
<g clip-path="url(#clip0_127_31)">
<path d="M38.8656 30.2527C43.6766 27.7875 47.3236 25.909 47.638 25.763C48.6436 25.2639 49.6821 23.943 47.638 22.917C46.978 22.5943 43.4246 20.7743 38.8656 18.4272L32.5455 24.3838L38.8656 30.2525V30.2527Z" fill="#FFD900"/>
<path d="M32.5455 24.384L12.4217 43.3116C12.894 43.3699 13.4273 43.2531 14.056 42.9305C15.376 42.2562 29.369 35.1248 38.8656 30.2543L32.5455 24.384Z" fill="#F43249"/>
<path d="M32.5455 24.384L38.8656 18.4568C38.8656 18.4568 15.4715 6.54215 14.056 5.83882C13.5228 5.54407 12.9252 5.45651 12.3904 5.54407L32.5455 24.384Z" fill="#00EE76"/>
<path d="M32.5455 24.3839L12.3904 5.54395C11.5724 5.72044 10.8812 6.39486 10.8812 7.77415V41.0812C10.8812 42.3436 11.4161 43.2529 12.4217 43.3406L32.5455 24.3839Z" fill="#00D3FF"/>
</g>
<defs>
<clipPath id="clip0_127_31">
<rect width="37.9512" height="37.8985" fill="white" transform="translate(10.8768 5.51172)"/>
</clipPath>
</defs>
</svg>
