<svg width="463" height="346" viewBox="0 0 463 346" fill="none" xmlns="http://www.w3.org/2000/svg">
<path d="M463 303.638H0V303.869H463V303.638Z" fill="#EBEBEB"/>
<path d="M416.607 318.537H385.938V318.769H416.607V318.537Z" fill="#EBEBEB"/>
<path d="M306.71 321.056H298.663V321.288H306.71V321.056Z" fill="#EBEBEB"/>
<path d="M385.012 309.944H367.242V310.176H385.012V309.944Z" fill="#EBEBEB"/>
<path d="M88.5719 311.5H48.5779V311.731H88.5719V311.5Z" fill="#EBEBEB"/>
<path d="M102.684 311.5H96.8226V311.731H102.684V311.5Z" fill="#EBEBEB"/>
<path d="M208.489 315.407H121.741V315.639H208.489V315.407Z" fill="#EBEBEB"/>
<path d="M219.462 262.338H40.6606C39.2599 262.336 37.9174 261.778 36.9278 260.786C35.9382 259.795 35.3824 258.452 35.3824 257.051V5.70661C35.3946 4.31393 35.9558 2.9823 36.9441 2.00096C37.9323 1.01963 39.2679 0.46784 40.6606 0.465454H219.462C220.864 0.465454 222.209 1.02252 223.201 2.01412C224.192 3.00571 224.749 4.35059 224.749 5.75291V257.051C224.749 258.453 224.192 259.798 223.201 260.79C222.209 261.781 220.864 262.338 219.462 262.338ZM40.6606 0.650655C39.3213 0.653108 38.0377 1.18687 37.0915 2.13478C36.1453 3.08269 35.6139 4.36729 35.6139 5.70661V257.051C35.6139 258.39 36.1453 259.675 37.0915 260.623C38.0377 261.571 39.3213 262.104 40.6606 262.107H219.462C220.802 262.104 222.087 261.571 223.034 260.623C223.982 259.676 224.516 258.391 224.518 257.051V5.70661C224.516 4.36644 223.982 3.08186 223.034 2.13421C222.087 1.18657 220.802 0.653103 219.462 0.650655H40.6606Z" fill="#EBEBEB"/>
<path d="M419.765 262.338H240.954C239.553 262.336 238.209 261.778 237.218 260.787C236.227 259.796 235.669 258.452 235.667 257.051V5.70661C235.682 4.31309 236.245 2.98147 237.235 2.00039C238.224 1.0193 239.561 0.467814 240.954 0.465454H419.765C421.156 0.470273 422.489 1.02314 423.476 2.00421C424.462 2.98529 425.022 4.31553 425.034 5.70661V257.051C425.034 258.45 424.479 259.792 423.492 260.783C422.504 261.774 421.164 262.333 419.765 262.338ZM240.954 0.650655C239.614 0.653103 238.33 1.18657 237.382 2.13421C236.434 3.08186 235.901 4.36644 235.899 5.70661V257.051C235.901 258.391 236.434 259.676 237.382 260.623C238.33 261.571 239.614 262.104 240.954 262.107H419.765C421.105 262.104 422.39 261.571 423.337 260.623C424.285 259.676 424.819 258.391 424.821 257.051V5.70661C424.819 4.36644 424.285 3.08186 423.337 2.13421C422.39 1.18657 421.105 0.653103 419.765 0.650655H240.954Z" fill="#EBEBEB"/>
<path d="M200.59 49.5803H84.4049V169.627H200.59V49.5803Z" fill="#EBEBEB"/>
<path d="M204.646 49.5803H88.4608V169.627H204.646V49.5803Z" fill="#F0F0F0"/>
<path d="M201.572 52.4232H91.3962V166.84H201.572V52.4232Z" fill="#E0E0E0"/>
<path d="M198.821 52.4232H91.3962V166.84H198.821V52.4232Z" fill="#F5F5F5"/>
<path d="M146.215 52.4232H144.03V166.84H146.215V52.4232Z" fill="#EBEBEB"/>
<path d="M131.473 52.4232L100.86 166.831H97.9152L128.538 52.4232H131.473Z" fill="white"/>
<path d="M147.151 50.6544H145.28V169.025H147.151V50.6544Z" fill="#F0F0F0"/>
<path d="M120.361 52.4232L91.3962 160.7V101.186L104.434 52.4232H120.361Z" fill="white"/>
<path d="M198.812 62.8038V73.7862L173.912 166.831H170.977L198.812 62.8038Z" fill="white"/>
<path d="M198.812 84.9814V144.495L192.839 166.831H176.912L198.812 84.9814Z" fill="white"/>
<path d="M293.042 211.436H404.292C404.291 213.403 403.532 215.293 402.173 216.715C400.814 218.136 398.959 218.978 396.995 219.066C385.04 219.603 366.65 221.493 360.816 228.104C349.945 240.438 350.991 283.757 364.02 293.785C368.104 296.934 380.003 303.184 380.003 303.184H317.322C317.322 303.184 328.434 296.804 332.314 293.785C345.278 283.673 345.639 240.383 334.712 228.104C329.156 221.807 311.868 219.77 300.302 219.131C298.337 219.02 296.49 218.16 295.14 216.729C293.79 215.298 293.039 213.404 293.042 211.436Z" fill="#F5F5F5"/>
<path d="M390.503 219.464C379.206 220.39 365.668 222.604 360.816 228.104C359.231 230.004 357.979 232.158 357.112 234.475H338.453C337.577 232.162 336.326 230.009 334.749 228.104C329.878 222.631 316.229 220.381 305.117 219.464H390.503Z" fill="#E6E6E6"/>
<path d="M340.425 211.491L341.944 194.203H320.007L318.498 211.491H340.425Z" fill="#EBEBEB"/>
<path d="M340.425 211.491L341.944 194.203H343.12L341.611 211.491H340.425Z" fill="#E0E0E0"/>
<path d="M338.342 209.732L339.555 195.962H322.091L320.887 209.732H338.342Z" fill="#F0F0F0"/>
<path d="M337.008 208.593L338.018 197.101H323.433L322.424 208.593H337.008Z" fill="#FAFAFA"/>
<path d="M347.537 211.436H369.567L367.122 183.499H345.102L347.537 211.436Z" fill="#E6E6E6"/>
<path d="M347.537 211.436H346.491L344.046 183.499H345.102L347.537 211.436Z" fill="#E0E0E0"/>
<path d="M349.537 208.593H367.076L365.131 186.351H347.593L349.537 208.593Z" fill="#F0F0F0"/>
<path d="M350.824 206.76H365.474L363.844 188.184H349.195L350.824 206.76Z" fill="#FAFAFA"/>
<path d="M358.223 196.537C357.987 196.774 357.707 196.963 357.398 197.092C357.088 197.221 356.757 197.287 356.422 197.287C356.087 197.287 355.756 197.221 355.447 197.092C355.137 196.963 354.857 196.774 354.621 196.537C354.383 196.301 354.195 196.02 354.066 195.711C353.937 195.402 353.871 195.071 353.871 194.736C353.871 194.401 353.937 194.069 354.066 193.76C354.195 193.451 354.383 193.17 354.621 192.935C355.1 192.459 355.747 192.192 356.422 192.192C357.097 192.192 357.744 192.459 358.223 192.935C358.699 193.413 358.966 194.061 358.966 194.736C358.966 195.411 358.699 196.058 358.223 196.537Z" fill="#EBEBEB"/>
<path d="M357.14 199.667C357.312 199.492 357.517 199.353 357.744 199.258C357.971 199.163 358.214 199.114 358.459 199.114C358.705 199.114 358.948 199.163 359.175 199.258C359.401 199.353 359.606 199.492 359.779 199.667C360.047 199.925 360.23 200.257 360.307 200.621C360.383 200.985 360.348 201.363 360.206 201.707C360.064 202.051 359.822 202.344 359.511 202.548C359.201 202.752 358.836 202.858 358.464 202.852C358.091 202.86 357.725 202.755 357.413 202.552C357.101 202.348 356.857 202.055 356.714 201.711C356.571 201.367 356.535 200.988 356.611 200.623C356.687 200.259 356.871 199.925 357.14 199.667Z" fill="#F0F0F0"/>
<path d="M170.44 297.47H191.895L180.616 205.602C180.345 203.683 179.403 201.922 177.957 200.632C176.511 199.342 174.655 198.606 172.718 198.555H79.0897L92.8222 297.47H170.44Z" fill="#F5F5F5"/>
<path d="M102.397 297.471H80.9417L69.663 205.602C69.5244 204.719 69.5814 203.816 69.8302 202.958C70.0789 202.099 70.5132 201.306 71.1024 200.634C71.6916 199.961 72.4212 199.427 73.2398 199.068C74.0583 198.709 74.9458 198.534 75.8394 198.555H83.2474C85.1857 198.606 87.0434 199.342 88.491 200.632C89.9386 201.921 90.8826 203.682 91.1555 205.602L102.397 297.471Z" fill="#F0F0F0"/>
<path d="M110.296 297.36L106.416 252.912C106.33 251.946 105.915 251.04 105.241 250.344C104.567 249.648 103.674 249.204 102.712 249.087L101.11 248.884C99.8233 248.717 98.6323 248.116 97.7345 247.179C96.8367 246.243 96.2862 245.027 96.1744 243.735L95.4613 235.632C95.3934 234.848 95.4891 234.058 95.7425 233.312C95.9959 232.567 96.4013 231.882 96.9333 231.301C97.4652 230.721 98.1119 230.257 98.8325 229.939C99.553 229.621 100.332 229.457 101.119 229.456H65.283C64.4917 229.455 63.7089 229.62 62.9849 229.939C62.261 230.258 61.6118 230.726 61.079 231.311C60.5462 231.896 60.1417 232.586 59.8913 233.336C59.6409 234.087 59.5503 234.882 59.6251 235.67L60.3289 243.772C60.4428 245.065 60.9952 246.281 61.8945 247.217C62.7938 248.154 63.9861 248.755 65.2737 248.921L66.8665 249.124C67.8284 249.241 68.7211 249.685 69.3952 250.381C70.0694 251.077 70.4842 251.983 70.5705 252.949L74.4597 297.397C74.5985 298.959 75.3169 300.413 76.4737 301.472C77.6305 302.531 79.1418 303.119 80.7102 303.119H116.565C114.987 303.122 113.467 302.532 112.305 301.464C111.143 300.397 110.426 298.932 110.296 297.36Z" fill="#E6E6E6"/>
<path d="M208.98 241.799C209.274 238.433 210.819 235.3 213.309 233.017C215.8 230.733 219.056 229.466 222.434 229.465H191.219C187.846 229.475 184.598 230.746 182.113 233.028C179.629 235.31 178.088 238.439 177.792 241.799L174.718 276.987H205.933L208.98 241.799Z" fill="#E6E6E6"/>
<path d="M236.297 229.465H222.407C219.028 229.466 215.772 230.733 213.281 233.017C210.791 235.3 209.246 238.433 208.952 241.799L205.868 276.987H131.548L128.464 241.799C128.168 238.434 126.622 235.302 124.132 233.019C121.642 230.736 118.387 229.468 115.009 229.465H101.119C100.332 229.466 99.553 229.63 98.8325 229.948C98.1119 230.266 97.4652 230.73 96.9332 231.31C96.4013 231.891 95.9958 232.576 95.7425 233.321C95.4891 234.067 95.3933 234.857 95.4613 235.642L96.1743 243.744C96.2862 245.037 96.8367 246.252 97.7345 247.188C98.6322 248.125 99.8233 248.726 101.11 248.893L102.712 249.096C103.674 249.213 104.566 249.657 105.241 250.353C105.915 251.049 106.33 251.955 106.416 252.921L110.296 297.369C110.435 298.931 111.153 300.385 112.31 301.444C113.467 302.503 114.978 303.091 116.546 303.091H220.897C222.465 303.093 223.977 302.505 225.132 301.445C226.288 300.386 227.004 298.931 227.139 297.369L231.028 252.921C231.114 251.955 231.529 251.049 232.203 250.353C232.877 249.657 233.77 249.213 234.732 249.096L236.324 248.893C237.613 248.728 238.806 248.128 239.706 247.191C240.605 246.254 241.157 245.038 241.269 243.744L241.982 235.651C242.05 234.864 241.954 234.071 241.699 233.323C241.444 232.575 241.036 231.888 240.501 231.306C239.967 230.724 239.317 230.26 238.593 229.943C237.869 229.626 237.087 229.463 236.297 229.465Z" fill="#F0F0F0"/>
<path d="M385.346 87.2499V58.5347H344.722V87.2499H385.346Z" fill="#E0E0E0"/>
<path d="M383.438 85.3703V60.4054H346.63V85.3703H383.438Z" fill="#EBEBEB"/>
<path d="M371.252 123.318V94.6028H330.628V123.318H371.252Z" fill="#E0E0E0"/>
<path d="M369.344 121.438V96.4734H332.536V121.438H369.344Z" fill="#EBEBEB"/>
<path d="M311.154 87.2501H337.008V50.6731H311.154V87.2501Z" fill="#E0E0E0"/>
<path d="M312.84 85.5277H335.323V52.3862H312.84V85.5277Z" fill="#EBEBEB"/>
<path d="M296.45 135.236H325.165V94.612H296.45V135.236Z" fill="#E0E0E0"/>
<path d="M298.329 133.328H323.294V96.5194H298.329V133.328Z" fill="#EBEBEB"/>
<path d="M270.577 64.7574V87.2407H302.385V64.7574H270.577Z" fill="#E0E0E0"/>
<path d="M272.077 66.23V85.7778H300.894V66.23H272.077Z" fill="#EBEBEB"/>
<path d="M231.5 345.456C330.658 345.456 411.042 340.763 411.042 334.974C411.042 329.184 330.658 324.491 231.5 324.491C132.342 324.491 51.9579 329.184 51.9579 334.974C51.9579 340.763 132.342 345.456 231.5 345.456Z" fill="#F5F5F5"/>
<path d="M149.03 328.89H112.889V335.983H149.03V328.89Z" fill="#7C20BE"/>
<path opacity="0.2" d="M149.03 328.89H141.067V335.983H149.03V328.89Z" fill="black"/>
<path opacity="0.2" d="M137.242 335.983H140.141V328.89H137.242V335.983Z" fill="black"/>
<path opacity="0.2" d="M133.529 335.983H135.511V328.89H133.529V335.983Z" fill="black"/>
<path opacity="0.2" d="M129.89 335.983H130.881V328.89H129.89V335.983Z" fill="black"/>
<path opacity="0.2" d="M123.899 335.983H124.399V328.89H123.899V335.983Z" fill="black"/>
<path d="M147.327 321.833H111.185V328.927H147.327V321.833Z" fill="#7C20BE"/>
<path opacity="0.2" d="M147.327 321.833H139.363V328.927H147.327V321.833Z" fill="black"/>
<path opacity="0.2" d="M135.539 328.927H138.437V321.834H135.539V328.927Z" fill="black"/>
<path opacity="0.2" d="M131.825 328.927H133.807V321.834H131.825V328.927Z" fill="black"/>
<path opacity="0.2" d="M128.186 328.927H129.177V321.834H128.186V328.927Z" fill="black"/>
<path opacity="0.2" d="M122.195 328.927H122.695V321.834H122.195V328.927Z" fill="black"/>
<path d="M150.558 314.777H114.417V321.871H150.558V314.777Z" fill="#7C20BE"/>
<path opacity="0.2" d="M150.558 314.777H142.595V321.871H150.558V314.777Z" fill="black"/>
<path opacity="0.2" d="M138.77 321.87H141.669V314.777H138.77V321.87Z" fill="black"/>
<path opacity="0.2" d="M135.057 321.87H137.039V314.777H135.057V321.87Z" fill="black"/>
<path opacity="0.2" d="M131.418 321.87H132.409V314.777H131.418V321.87Z" fill="black"/>
<path opacity="0.2" d="M125.427 321.87H125.927V314.777H125.427V321.87Z" fill="black"/>
<path d="M149.03 307.721H112.889V314.814H149.03V307.721Z" fill="#7C20BE"/>
<path opacity="0.2" d="M149.03 307.721H141.067V314.814H149.03V307.721Z" fill="black"/>
<path opacity="0.2" d="M137.242 314.814H140.141V307.721H137.242V314.814Z" fill="black"/>
<path opacity="0.2" d="M133.529 314.814H135.511V307.721H133.529V314.814Z" fill="black"/>
<path opacity="0.2" d="M129.89 314.814H130.881V307.721H129.89V314.814Z" fill="black"/>
<path opacity="0.2" d="M123.899 314.814H124.399V307.721H123.899V314.814Z" fill="black"/>
<path d="M148.104 300.665H111.963V307.758H148.104V300.665Z" fill="#7C20BE"/>
<path opacity="0.2" d="M148.104 300.665H140.141V307.758H148.104V300.665Z" fill="black"/>
<path opacity="0.2" d="M136.317 307.758H139.215V300.665H136.317V307.758Z" fill="black"/>
<path opacity="0.2" d="M132.603 307.758H134.585V300.665H132.603V307.758Z" fill="black"/>
<path opacity="0.2" d="M128.964 307.758H129.955V300.665H128.964V307.758Z" fill="black"/>
<path opacity="0.2" d="M122.973 307.758H123.473V300.665H122.973V307.758Z" fill="black"/>
<path d="M149.03 293.609H112.889V300.702H149.03V293.609Z" fill="#7C20BE"/>
<path opacity="0.2" d="M149.03 293.609H141.067V300.702H149.03V293.609Z" fill="black"/>
<path opacity="0.2" d="M137.242 300.702H140.141V293.609H137.242V300.702Z" fill="black"/>
<path opacity="0.2" d="M133.529 300.702H135.511V293.609H133.529V300.702Z" fill="black"/>
<path opacity="0.2" d="M129.89 300.702H130.881V293.609H129.89V300.702Z" fill="black"/>
<path opacity="0.2" d="M123.899 300.702H124.399V293.609H123.899V300.702Z" fill="black"/>
<path d="M149.03 286.553H112.889V293.646H149.03V286.553Z" fill="#7C20BE"/>
<path opacity="0.2" d="M149.03 286.553H141.067V293.646H149.03V286.553Z" fill="black"/>
<path opacity="0.2" d="M137.242 293.646H140.141V286.553H137.242V293.646Z" fill="black"/>
<path opacity="0.2" d="M133.529 293.646H135.511V286.553H133.529V293.646Z" fill="black"/>
<path opacity="0.2" d="M129.89 293.646H130.881V286.553H129.89V293.646Z" fill="black"/>
<path opacity="0.2" d="M123.899 293.646H124.399V286.553H123.899V293.646Z" fill="black"/>
<path d="M147.178 279.497H111.037V286.59H147.178V279.497Z" fill="#7C20BE"/>
<path opacity="0.2" d="M147.178 279.497H139.215V286.59H147.178V279.497Z" fill="black"/>
<path opacity="0.2" d="M135.391 286.59H138.289V279.497H135.391V286.59Z" fill="black"/>
<path opacity="0.2" d="M131.677 286.59H133.659V279.497H131.677V286.59Z" fill="black"/>
<path opacity="0.2" d="M128.038 286.59H129.029V279.497H128.038V286.59Z" fill="black"/>
<path opacity="0.2" d="M122.047 286.59H122.547V279.497H122.047V286.59Z" fill="black"/>
<path d="M149.03 272.441H112.889V279.534H149.03V272.441Z" fill="#7C20BE"/>
<path opacity="0.2" d="M149.03 272.441H141.067V279.534H149.03V272.441Z" fill="black"/>
<path opacity="0.2" d="M137.242 279.534H140.141V272.441H137.242V279.534Z" fill="black"/>
<path opacity="0.2" d="M133.529 279.534H135.511V272.441H133.529V279.534Z" fill="black"/>
<path opacity="0.2" d="M129.89 279.534H130.881V272.441H129.89V279.534Z" fill="black"/>
<path opacity="0.2" d="M123.899 279.534H124.399V272.441H123.899V279.534Z" fill="black"/>
<path d="M150.882 265.385H114.741V272.478H150.882V265.385Z" fill="#7C20BE"/>
<path opacity="0.2" d="M150.882 265.385H142.919V272.478H150.882V265.385Z" fill="black"/>
<path opacity="0.2" d="M139.094 272.478H141.993V265.385H139.094V272.478Z" fill="black"/>
<path opacity="0.2" d="M135.381 272.478H137.363V265.385H135.381V272.478Z" fill="black"/>
<path opacity="0.2" d="M131.742 272.478H132.733V265.385H131.742V272.478Z" fill="black"/>
<path opacity="0.2" d="M125.751 272.478H126.251V265.385H125.751V272.478Z" fill="black"/>
<path d="M118.861 328.89H82.7196V335.983H118.861V328.89Z" fill="#7C20BE"/>
<path opacity="0.2" d="M118.871 328.89H110.907V335.983H118.871V328.89Z" fill="black"/>
<path opacity="0.2" d="M107.083 335.983H109.981V328.89H107.083V335.983Z" fill="black"/>
<path opacity="0.2" d="M103.369 335.983H105.351V328.89H103.369V335.983Z" fill="black"/>
<path opacity="0.2" d="M99.7302 335.983H100.721V328.89H99.7302V335.983Z" fill="black"/>
<path opacity="0.2" d="M93.7297 335.983H94.2297V328.89H93.7297V335.983Z" fill="black"/>
<path d="M117.009 321.833H80.8676V328.927H117.009V321.833Z" fill="#7C20BE"/>
<path opacity="0.2" d="M117.019 321.833H109.055V328.927H117.019V321.833Z" fill="black"/>
<path opacity="0.2" d="M105.231 328.927H108.129V321.834H105.231V328.927Z" fill="black"/>
<path opacity="0.2" d="M101.517 328.927H103.499V321.834H101.517V328.927Z" fill="black"/>
<path opacity="0.2" d="M97.8781 328.927H98.869V321.834H97.8781V328.927Z" fill="black"/>
<path opacity="0.2" d="M91.8777 328.927H92.3778V321.834H91.8777V328.927Z" fill="black"/>
<path d="M118.861 314.777H82.7196V321.871H118.861V314.777Z" fill="#7C20BE"/>
<path opacity="0.2" d="M118.871 314.777H110.907V321.871H118.871V314.777Z" fill="black"/>
<path opacity="0.2" d="M107.083 321.87H109.981V314.777H107.083V321.87Z" fill="black"/>
<path opacity="0.2" d="M103.369 321.87H105.351V314.777H103.369V321.87Z" fill="black"/>
<path opacity="0.2" d="M99.7302 321.87H100.721V314.777H99.7302V321.87Z" fill="black"/>
<path opacity="0.2" d="M93.7297 321.87H94.2297V314.777H93.7297V321.87Z" fill="black"/>
<path d="M117.935 307.721H81.7936V314.814H117.935V307.721Z" fill="#7C20BE"/>
<path opacity="0.2" d="M117.945 307.721H109.981V314.814H117.945V307.721Z" fill="black"/>
<path opacity="0.2" d="M106.157 314.814H109.055V307.721H106.157V314.814Z" fill="black"/>
<path opacity="0.2" d="M102.443 314.814H104.425V307.721H102.443V314.814Z" fill="black"/>
<path opacity="0.2" d="M98.8042 314.814H99.795V307.721H98.8042V314.814Z" fill="black"/>
<path opacity="0.2" d="M92.8037 314.814H93.3038V307.721H92.8037V314.814Z" fill="black"/>
<path d="M118.861 300.665H82.7196V307.758H118.861V300.665Z" fill="#7C20BE"/>
<path opacity="0.2" d="M118.871 300.665H110.907V307.758H118.871V300.665Z" fill="black"/>
<path opacity="0.2" d="M107.083 307.758H109.981V300.665H107.083V307.758Z" fill="black"/>
<path opacity="0.2" d="M103.369 307.758H105.351V300.665H103.369V307.758Z" fill="black"/>
<path opacity="0.2" d="M99.7302 307.758H100.721V300.665H99.7302V307.758Z" fill="black"/>
<path opacity="0.2" d="M93.7297 307.758H94.2297V300.665H93.7297V307.758Z" fill="black"/>
<path d="M116.083 293.609H79.9416V300.702H116.083V293.609Z" fill="#7C20BE"/>
<path opacity="0.2" d="M116.093 293.609H108.129V300.702H116.093V293.609Z" fill="black"/>
<path opacity="0.2" d="M104.305 300.702H107.203V293.609H104.305V300.702Z" fill="black"/>
<path opacity="0.2" d="M100.591 300.702H102.573V293.609H100.591V300.702Z" fill="black"/>
<path opacity="0.2" d="M96.9522 300.702H97.943V293.609H96.9522V300.702Z" fill="black"/>
<path opacity="0.2" d="M90.9517 300.702H91.4518V293.609H90.9517V300.702Z" fill="black"/>
<path d="M300.552 286.525L305.311 335.983H275.272L260.252 300.841C260.252 300.841 281.504 283.294 300.552 286.525Z" fill="#7C20BE"/>
<path d="M358.066 271.784L366.4 335.946H336.388L318.396 293.85C318.396 293.85 328.397 271.589 358.066 271.784Z" fill="#7C20BE"/>
<path opacity="0.2" d="M300.552 286.525L305.311 335.983H275.272L260.252 300.841C260.252 300.841 281.504 283.294 300.552 286.525Z" fill="white"/>
<path opacity="0.2" d="M358.066 271.784L366.4 335.946H336.388L318.396 293.85C318.396 293.85 328.397 271.589 358.066 271.784Z" fill="white"/>
<path opacity="0.2" d="M305.311 335.983H275.272L260.252 300.841C260.252 300.841 281.504 283.294 300.552 286.535L303.793 320.25L305.311 335.983Z" fill="black"/>
<path opacity="0.2" d="M366.427 335.983H336.388L318.396 293.887C318.396 293.887 328.397 271.589 358.066 271.82L360.214 288.377L366.427 335.983Z" fill="black"/>
<path opacity="0.2" d="M303.793 320.251C294.444 324.139 284.786 327.236 274.92 329.511L275.272 335.993L260.252 300.851C260.252 300.851 281.504 283.303 300.552 286.544L303.793 320.251Z" fill="black"/>
<path opacity="0.2" d="M329.906 307.666L336.388 335.983L318.396 293.887C318.396 293.887 328.397 271.589 358.066 271.82L360.214 288.377C350.5 295.398 340.379 301.838 329.906 307.666Z" fill="black"/>
<path d="M269.809 308.611C319.012 308.611 358.899 276.829 358.899 237.624C358.899 198.418 319.012 166.636 269.809 166.636C220.605 166.636 180.718 198.418 180.718 237.624C180.718 276.829 220.605 308.611 269.809 308.611Z" fill="#7C20BE"/>
<path opacity="0.2" d="M358.899 237.624C358.899 239.383 358.816 241.133 358.658 242.865C357.177 259.014 348.917 273.636 336.138 285.025C319.831 299.508 296.153 308.62 269.808 308.62C220.61 308.62 180.727 276.83 180.727 237.624C180.727 236.846 180.727 236.077 180.783 235.309C182.311 197.176 221.582 166.636 269.808 166.636C291.912 166.636 312.127 173.044 327.693 183.656C346.796 196.685 358.899 216.029 358.899 237.624Z" fill="white"/>
<path opacity="0.2" d="M342.037 279.192C342.481 278.701 342.963 278.21 343.352 277.71L344.278 276.599C344.676 276.117 345.074 275.627 345.454 275.127L346.38 273.96C346.75 273.46 347.102 272.96 347.463 272.46C347.824 271.96 348.028 271.663 348.306 271.256C348.583 270.848 349 270.191 349.333 269.663C349.667 269.135 349.843 268.885 350.084 268.487C350.574 267.681 351.01 266.867 351.491 266.042C351.741 265.579 351.982 265.116 352.223 264.644C352.463 264.172 352.825 263.487 353.102 262.894C353.38 262.301 353.519 261.968 353.723 261.533C353.926 261.098 354.195 260.477 354.417 259.949C354.639 259.422 354.788 259.023 354.973 258.514C355.158 258.005 355.38 257.458 355.565 256.931C355.751 256.403 355.899 256.005 356.056 255.477C356.214 254.949 356.399 254.384 356.566 253.838C356.732 253.291 356.843 252.912 356.964 252.393C357.084 251.875 357.26 251.236 357.399 250.652C357.538 250.069 357.612 249.726 357.705 249.273C357.843 248.615 357.955 247.948 358.075 247.282C358.14 246.893 358.214 246.495 358.279 246.106C358.436 245.041 358.566 243.967 358.668 242.892C358.825 241.161 358.908 239.411 358.908 237.651C358.908 216.057 346.806 196.713 327.702 183.684C317.053 179.508 300.848 196.824 299.32 221.502C298.052 242.411 307.793 263.7 322.229 276.377C304.552 294.248 273.466 304.453 239.241 296.387C202.933 287.822 182.311 254.579 180.792 235.336C180.792 236.105 180.737 236.873 180.737 237.651C180.737 276.858 220.619 308.648 269.818 308.648C296.163 308.648 319.822 299.527 336.138 285.044L336.249 284.933C336.397 284.812 336.536 284.674 336.675 284.544C337.379 283.905 338.073 283.266 338.74 282.609L339.583 281.766C340.101 281.247 340.611 280.729 341.111 280.201C341.425 279.849 341.694 279.506 342.037 279.192Z" fill="black"/>
<path opacity="0.2" d="M307.238 175.202L301.682 176.387L295.635 177.683C275.022 169.701 251.057 171.914 239.834 173.628C236.065 174.211 233.722 174.73 233.417 174.804L244.186 170.516C281.791 162.404 307.238 175.202 307.238 175.202Z" fill="black"/>
<path opacity="0.2" d="M301.691 176.406L295.644 177.702C275.022 169.701 251.057 171.914 239.834 173.628L244.205 171.887C271.318 166.386 292.181 172.526 301.691 176.406Z" fill="black"/>
<path d="M346.204 191.222C346.204 191.222 353.038 178.109 375.262 173.924C375.262 173.924 378.688 174.637 375.262 177.924C375.262 177.924 375.993 195.676 373.067 204.778C370.141 213.881 346.204 191.222 346.204 191.222Z" fill="#7C20BE"/>
<path opacity="0.2" d="M375.262 177.924C375.262 177.924 375.993 195.676 373.067 204.778C372.96 205.107 372.807 205.418 372.613 205.704C372.266 206.194 371.786 206.573 371.229 206.796C370.672 207.019 370.063 207.078 369.474 206.964C369.941 206.283 370.306 205.537 370.557 204.75C370.687 204.38 370.817 203.963 370.928 203.519C374.632 189.425 369.65 182.369 369.65 182.369L372.03 179.498C358.899 183.915 355.908 196.555 355.908 196.555L356.121 196.944C357.124 198.71 358.219 200.422 359.399 202.074C354.769 198.749 350.361 195.123 346.204 191.222C346.204 191.222 353.038 178.1 375.262 173.915C375.262 173.915 376.826 174.239 376.78 175.47C376.594 176.447 376.053 177.321 375.262 177.924Z" fill="white"/>
<path opacity="0.2" d="M375.262 177.924C375.262 177.924 375.993 195.676 373.067 204.778C372.96 205.106 372.807 205.418 372.613 205.704L370.557 204.686C366.168 202.472 360.575 199.546 356.121 196.879C353.27 195.147 350.723 192.957 348.583 190.397C350.76 188.666 357.556 188.666 357.556 188.666C363.603 181.165 376.78 175.424 376.78 175.424C376.604 176.418 376.062 177.31 375.262 177.924Z" fill="black"/>
<path d="M390.976 226.345L385.29 227.002C381.086 205.102 364.168 188.721 343.935 188.721C320.526 188.721 301.561 210.612 301.561 237.623C301.561 264.635 320.526 286.526 343.935 286.526C359.445 286.526 373.002 276.904 380.392 262.542C380.392 262.542 402.412 252.282 403.245 247.587L390.976 226.345Z" fill="#7C20BE"/>
<path opacity="0.2" d="M403.245 247.587C402.412 252.282 380.392 262.542 380.392 262.542C372.984 276.895 359.445 286.525 343.935 286.525C320.526 286.525 301.561 264.626 301.561 237.614V237.29C301.644 222.631 307.321 209.51 316.248 200.593C321.462 195.291 328.042 191.535 335.258 189.74C338.1 189.055 341.012 188.71 343.935 188.712C362.455 188.712 378.151 202.398 383.929 221.465C384.481 223.291 384.936 225.146 385.29 227.021L390.976 226.363L403.245 247.587Z" fill="white"/>
<path opacity="0.2" d="M336.314 202.195C333.777 209.066 320.952 203.074 316.247 200.602C321.462 195.3 328.042 191.544 335.258 189.749C336.758 193.074 337.99 197.704 336.314 202.195Z" fill="black"/>
<path opacity="0.2" d="M385.29 227.002C385.29 227.002 376.789 226.641 372.03 234.207C372.03 234.207 375.604 223.909 383.929 221.474C384.48 223.291 384.935 225.137 385.29 227.002Z" fill="black"/>
<path opacity="0.2" d="M380.392 262.524C372.984 276.877 359.445 286.507 343.935 286.507C320.526 286.507 301.561 264.607 301.561 237.596V237.272C304.71 254.662 315.859 271.617 332.462 278.016C353.343 286.081 362.686 273.802 362.686 273.802C360.496 273.198 358.509 272.015 356.933 270.377C355.358 268.74 354.252 266.708 353.732 264.496C364.335 268.524 380.392 262.524 380.392 262.524Z" fill="black"/>
<path d="M390.976 226.345C395.55 226.345 404.347 240.439 403.245 247.587C402.143 254.736 376.317 256.384 373.743 249.439C371.937 244.569 385.66 226.345 390.976 226.345Z" fill="#7C20BE"/>
<path opacity="0.6" d="M390.976 226.345C395.55 226.345 404.347 240.439 403.245 247.587C402.143 254.736 376.317 256.384 373.743 249.439C371.937 244.569 385.66 226.345 390.976 226.345Z" fill="white"/>
<path opacity="0.3" d="M388.235 244.929C387.67 247.263 386.225 248.911 385.012 248.633C383.799 248.356 383.281 246.217 383.845 243.892C384.41 241.568 385.846 239.911 387.059 240.188C388.272 240.466 388.8 242.559 388.235 244.929Z" fill="black"/>
<path opacity="0.3" d="M396.836 248.465C398.08 248.371 398.943 246.36 398.762 243.973C398.581 241.586 397.426 239.728 396.182 239.822C394.937 239.916 394.075 241.928 394.256 244.314C394.437 246.701 395.592 248.559 396.836 248.465Z" fill="black"/>
<path d="M350.75 234.206C350.75 236.901 349.417 239.086 347.769 239.086C346.12 239.086 344.787 236.901 344.787 234.206C344.787 231.512 346.12 229.326 347.769 229.326C349.417 229.326 350.75 231.512 350.75 234.206Z" fill="#263238"/>
<path d="M307.247 215.872C307.247 215.872 306.386 189.295 323.313 174.294C323.313 174.294 326.619 173.155 325.369 177.73C325.369 177.73 335.11 192.592 337.277 201.926C339.444 211.26 307.247 215.872 307.247 215.872Z" fill="#7C20BE"/>
<path opacity="0.2" d="M307.247 215.872C307.247 215.872 306.386 189.295 323.313 174.294C323.313 174.294 326.619 173.155 325.369 177.73C325.369 177.73 335.11 192.592 337.277 201.926C339.444 211.26 307.247 215.872 307.247 215.872Z" fill="white"/>
<path d="M323.6 181.036C323.6 181.036 316.525 195.935 317.118 210.334C317.118 210.334 329.017 207.89 333.601 199.102C333.564 199.102 330.489 188.444 323.6 181.036Z" fill="#7C20BE"/>
<path d="M252.057 286.525L247.288 335.983H277.328L292.347 300.841C292.347 300.841 271.105 283.294 252.057 286.525Z" fill="#7C20BE"/>
<path d="M194.543 271.784L186.209 335.946H216.249L231.268 300.805C231.268 300.805 224.212 271.589 194.543 271.784Z" fill="#7C20BE"/>
<path opacity="0.2" d="M292.347 300.841L277.328 335.983H247.288L252.057 286.535C259.697 285.238 267.679 287.275 274.513 290.192C280.888 292.967 286.881 296.545 292.347 300.841Z" fill="white"/>
<path opacity="0.2" d="M231.231 300.841L216.212 335.983H186.172L194.506 271.821C204.692 271.737 212.202 275.136 217.656 279.627C228.203 288.229 231.231 300.841 231.231 300.841Z" fill="white"/>
<path opacity="0.2" d="M231.231 300.842L216.212 335.983H186.172L194.506 271.821L189.006 332.557H212.054L226.046 298.193C226.046 298.193 225.12 289.757 217.712 279.673C228.203 288.23 231.231 300.842 231.231 300.842Z" fill="black"/>
<path opacity="0.2" d="M292.347 300.841L277.328 335.983H247.288L252.057 286.535L249.492 332.557H273.809L283.236 302.341C283.236 302.341 281.837 296.582 274.513 290.174C280.889 292.954 286.882 296.539 292.347 300.841Z" fill="black"/>
<path d="M178.885 135.773C172.949 137.56 170.551 159.441 167.087 167.822C163.624 176.202 156.466 192.824 156.466 192.824L159.244 195.722C159.244 195.722 171.523 175.35 173.134 172.303C174.745 169.257 181.996 146.375 181.996 146.375L178.885 135.773Z" fill="#E4897B"/>
<path d="M178.885 135.773C175.329 136.764 173.875 136.819 168.801 162.488L157.744 187.925L162.976 191.222C162.976 191.222 174.292 171.6 176.866 166.636C179.44 161.673 182.478 142.042 182.478 142.042L178.885 135.773Z" fill="#7C20BE"/>
<path opacity="0.4" d="M182.505 142.051C182.505 142.051 181.431 149.042 180.014 155.728C179.088 160.247 177.931 164.636 176.894 166.636C176.292 167.794 175.218 169.738 173.921 172.053C173.218 173.313 172.44 174.683 171.643 176.091C167.606 183.184 162.976 191.221 162.976 191.221L157.726 187.916L168.801 162.515C173.875 136.856 175.329 136.791 178.885 135.81L182.505 142.051Z" fill="white"/>
<path opacity="0.2" d="M180.014 155.728C179.088 160.247 177.931 164.636 176.894 166.636C176.292 167.794 175.218 169.738 173.921 172.053C172.264 160.015 176.255 148.116 176.255 148.116C177.857 149.431 179.107 152.228 180.014 155.728Z" fill="black"/>
<path d="M162.569 162.228H159.133C149.327 162.228 141.382 171.544 141.382 183.035C141.382 194.527 149.327 203.833 159.133 203.833H162.569C172.366 203.833 180.32 194.518 180.32 183.035C180.32 171.553 172.366 162.228 162.569 162.228Z" fill="#7C20BE"/>
<path opacity="0.2" d="M162.569 162.228H159.133C149.327 162.228 141.382 171.544 141.382 183.035C141.382 194.527 149.327 203.833 159.133 203.833H162.569C172.366 203.833 180.32 194.518 180.32 183.035C180.32 171.553 172.366 162.228 162.569 162.228Z" fill="black"/>
<path d="M162.569 203.843C172.372 203.843 180.32 194.527 180.32 183.035C180.32 171.544 172.372 162.228 162.569 162.228C152.765 162.228 144.817 171.544 144.817 183.035C144.817 194.527 152.765 203.843 162.569 203.843Z" fill="#7C20BE"/>
<path opacity="0.2" d="M162.569 200.241C170.674 200.241 177.246 192.538 177.246 183.036C177.246 173.534 170.674 165.831 162.569 165.831C154.463 165.831 147.891 173.534 147.891 183.036C147.891 192.538 154.463 200.241 162.569 200.241Z" fill="black"/>
<path d="M163.587 192.046V194.87H161.828V192.092C159.886 192.008 158.029 191.27 156.559 189.999L157.531 187.453C158.722 188.534 160.228 189.205 161.828 189.37V184.332C159.439 183.656 156.883 182.749 156.883 179.248C156.883 176.683 158.476 174.442 161.828 174.063V171.22H163.587V173.998C165.157 174.086 166.67 174.619 167.949 175.535L167.023 178.082C165.985 177.361 164.792 176.894 163.541 176.72V181.804C165.921 182.489 168.523 183.369 168.523 186.869C168.532 189.425 166.958 191.638 163.587 192.046ZM161.828 181.267V176.785C161.239 176.814 160.684 177.069 160.279 177.497C159.873 177.924 159.649 178.492 159.652 179.082C159.652 180.286 160.578 180.841 161.828 181.267ZM165.819 187.082C165.819 185.851 164.893 185.277 163.587 184.841V189.305C165.152 189.027 165.819 188.166 165.819 187.082Z" fill="#7C20BE"/>
<path d="M201.599 271.552L199.247 276.052C199.247 276.052 197.229 274.978 194.015 273.219C193.089 272.719 192.08 272.163 190.987 271.552C187.95 269.885 184.302 267.848 180.45 265.672L177.931 264.227C164.569 256.569 149.873 247.559 149.873 245.031C149.873 242.253 158.485 225.678 165.374 212.862C170.004 204.306 173.81 197.416 173.81 197.416L190.173 207.436C190.173 207.436 184.617 214.89 178.885 223.094C172.227 232.66 165.384 243.244 166.948 244.3C168.143 245.096 174.227 249.856 180.959 255.18L182.181 256.106C185.811 258.977 189.589 261.949 192.793 264.523L195.404 266.588L201.599 271.552Z" fill="#E4897B"/>
<path opacity="0.2" d="M190.173 207.436C190.173 207.436 182.496 217.807 176.783 226.011L163.819 215.76C168.449 207.204 173.838 197.416 173.838 197.416L190.173 207.436Z" fill="black"/>
<path opacity="0.2" d="M195.386 266.626L193.997 273.219C189.978 271.024 184.089 267.774 177.912 264.227C178.959 261.042 180.163 257.458 180.94 255.18C185.987 259.143 191.386 263.449 195.386 266.626Z" fill="black"/>
<path d="M208.813 215.76L205.665 225.372L205.016 227.345L200.21 241.976L199.664 243.652L196.488 253.31L192.784 264.561L191.08 269.756C191.08 270.348 191.025 270.95 190.978 271.552C189.358 296.397 176.422 328.881 176.422 328.881L171.792 327.621C173.431 308.101 176.94 285.359 180.431 265.672C181.014 262.403 181.589 259.19 182.163 256.143C182.487 254.421 182.802 252.726 183.089 251.078C183.755 247.587 184.385 244.281 185.006 241.207C185.302 239.744 185.58 238.346 185.848 236.984C186.524 233.632 187.135 230.641 187.7 228.076C188.265 225.511 188.673 223.391 189.024 221.77C189.534 219.4 189.821 218.066 189.821 218.066L208.813 215.76Z" fill="#E4897B"/>
<path d="M196.034 266.737C195.432 266.737 195.793 274.145 195.793 274.145C195.793 274.145 200.331 278.775 201.303 283.164C202.275 287.553 204.952 285.164 205.007 280.238C205.063 275.312 205.137 271.561 205.192 268.07C205.248 264.579 202.248 266.681 196.034 266.737Z" fill="#263238"/>
<path d="M197.432 278.664C197.334 278.769 197.206 278.841 197.065 278.871C196.924 278.901 196.778 278.886 196.645 278.831C196.539 278.801 196.441 278.751 196.355 278.683C196.269 278.614 196.198 278.529 196.145 278.432C195.944 277.904 195.892 277.33 195.997 276.775C195.664 277.367 195.266 277.886 194.877 277.905C194.627 277.905 194.423 277.747 194.266 277.414C194.201 277.268 194.168 277.11 194.168 276.951C194.168 276.791 194.201 276.634 194.266 276.488C194.701 275.497 196.423 274.904 196.497 274.876C196.545 274.858 196.598 274.858 196.645 274.876H196.692C196.696 274.898 196.696 274.92 196.692 274.941C197.176 275.901 197.489 276.939 197.618 278.006C197.632 278.24 197.567 278.472 197.432 278.664ZM196.506 278.247C196.533 278.299 196.569 278.344 196.614 278.381C196.658 278.418 196.71 278.445 196.766 278.46C197.053 278.534 197.127 278.46 197.155 278.46C197.442 278.117 197.053 276.766 196.618 275.682C196.337 276.515 196.292 277.409 196.488 278.266L196.506 278.247ZM194.654 277.247C194.654 277.349 194.793 277.525 194.895 277.516C195.229 277.516 195.821 276.46 196.247 275.377C195.591 275.602 195.028 276.039 194.645 276.617C194.598 276.709 194.573 276.811 194.571 276.914C194.564 277.028 194.583 277.142 194.627 277.247H194.654Z" fill="#7C20BE"/>
<path d="M177.792 326.788C177.792 326.186 170.384 326.658 170.384 326.658C170.384 326.658 165.847 331.288 161.448 332.307C157.05 333.325 159.503 336.011 164.421 336.011H176.597C180.079 335.983 177.894 333.001 177.792 326.788Z" fill="#263238"/>
<path d="M165.837 328.371C165.731 328.274 165.657 328.146 165.625 328.005C165.594 327.864 165.606 327.717 165.661 327.584C165.687 327.478 165.735 327.378 165.802 327.292C165.869 327.206 165.954 327.135 166.05 327.084C166.575 326.872 167.149 326.807 167.708 326.899C167.106 326.584 166.578 326.195 166.56 325.806C166.56 325.556 166.708 325.343 167.041 325.186C167.187 325.121 167.345 325.088 167.504 325.088C167.664 325.088 167.821 325.121 167.967 325.186C168.967 325.602 169.588 327.325 169.615 327.399C169.634 327.446 169.634 327.499 169.615 327.547C169.598 327.57 169.576 327.589 169.551 327.602C168.593 328.086 167.559 328.399 166.495 328.528C166.264 328.551 166.033 328.495 165.837 328.371ZM166.245 327.445C166.193 327.471 166.148 327.508 166.111 327.552C166.074 327.597 166.047 327.649 166.032 327.704C165.958 327.991 166.032 328.065 166.032 328.093C166.384 328.38 167.736 327.973 168.81 327.51C167.978 327.251 167.093 327.219 166.245 327.417V327.445ZM167.171 325.593C167.069 325.639 166.902 325.741 166.911 325.843C166.911 326.167 167.986 326.769 169.069 327.158C168.832 326.507 168.39 325.951 167.81 325.575C167.715 325.537 167.615 325.515 167.513 325.51C167.411 325.499 167.307 325.508 167.208 325.537L167.171 325.593Z" fill="#7C20BE"/>
<path opacity="0.7" d="M183.015 221.085L181.95 222.085L166.041 211.297L168.05 206.389C168.023 208.116 168.276 209.836 168.8 211.482C169.671 213.538 180.209 219.52 183.015 221.085Z" fill="white"/>
<path opacity="0.2" d="M208.813 215.76L205.016 227.335C196.321 229.4 191.349 228.095 187.728 228.067C188.256 225.511 188.7 223.381 189.052 221.761C189.561 219.39 189.849 218.057 189.849 218.057L208.813 215.76Z" fill="black"/>
<path d="M208.582 222.27C208.387 223.798 208.146 225.363 207.868 226.956L186.626 226.206V217.677L179.542 225.484L163.8 212.705L174.745 190.055L176.153 175.785L204.739 178.822C204.739 178.822 212.054 195.944 208.582 222.27Z" fill="#263238"/>
<path d="M204.442 174.766L175.496 172.266V177.22L205.128 179.841L204.442 174.766Z" fill="black"/>
<path d="M183.57 174.461V176.757C183.569 177.207 183.737 177.64 184.04 177.972C184.344 178.303 184.761 178.507 185.209 178.545L188.821 178.869H188.978C189.426 178.863 189.857 178.695 190.191 178.396C190.372 178.226 190.517 178.021 190.618 177.794C190.718 177.566 190.771 177.321 190.775 177.072V174.757C190.776 174.308 190.608 173.874 190.305 173.543C190.001 173.212 189.583 173.007 189.136 172.97L185.515 172.655C185.266 172.634 185.016 172.665 184.78 172.746C184.544 172.828 184.327 172.957 184.144 173.128C183.964 173.3 183.82 173.506 183.721 173.736C183.623 173.965 183.571 174.211 183.57 174.461ZM184.496 176.757V175.998L185.506 176.072C185.586 176.078 185.667 176.068 185.743 176.043C185.819 176.018 185.89 175.978 185.951 175.926C186.012 175.873 186.062 175.81 186.099 175.738C186.135 175.666 186.157 175.588 186.163 175.507C186.169 175.427 186.159 175.346 186.134 175.27C186.109 175.193 186.069 175.123 186.017 175.062C185.964 175.001 185.9 174.95 185.829 174.914C185.757 174.878 185.678 174.856 185.598 174.85L184.589 174.767H184.45V174.424C184.447 174.302 184.471 174.182 184.519 174.07C184.567 173.958 184.638 173.858 184.728 173.776C184.888 173.632 185.096 173.553 185.311 173.553H185.394L189.006 173.868C189.223 173.885 189.426 173.983 189.573 174.142C189.721 174.302 189.803 174.512 189.802 174.729V177.044C189.802 177.165 189.776 177.284 189.727 177.394C189.677 177.505 189.605 177.603 189.515 177.683C189.428 177.766 189.325 177.829 189.211 177.867C189.097 177.906 188.977 177.919 188.858 177.906L185.237 177.591C185.036 177.561 184.851 177.461 184.716 177.308C184.58 177.156 184.503 176.961 184.496 176.757Z" fill="white"/>
<path d="M178.885 135.773C178.885 135.773 196.636 134.439 209.517 139.754L204.442 174.766L176.977 172.266C176.977 172.266 176.255 146.181 178.885 135.773Z" fill="#7C20BE"/>
<path d="M198.47 137.513C198.47 137.513 196.914 140.875 190.552 142.773C190.552 142.773 187.043 140.921 188.043 137.847C188.043 137.847 190.071 137.495 189.506 132.643C189.506 132.513 189.487 132.374 189.45 132.226C189.267 131.011 189.01 129.808 188.682 128.624L196.266 125.846C196.266 125.846 194.358 132.041 197.099 136.032C197.473 136.596 197.936 137.097 198.47 137.513Z" fill="#E4897B"/>
<path opacity="0.2" d="M197.099 136.004C194.225 135.9 191.503 134.685 189.506 132.615C189.506 132.485 189.487 132.346 189.45 132.198C189.267 130.983 189.01 129.78 188.682 128.596L196.266 125.818C196.266 125.818 194.358 132.004 197.099 136.004Z" fill="black"/>
<path d="M188.848 108.15C188.848 108.15 186.774 97.7973 176.107 99.8715C165.439 101.946 170.412 116.54 172.588 121.068C174.764 125.596 175.07 129.402 172.486 131.448C172.486 131.448 176.005 132.457 177.866 130.041C177.866 130.041 177.764 132.272 176.523 133.208C176.523 133.208 187.246 129.374 184.524 116.845C181.802 104.316 188.848 108.15 188.848 108.15Z" fill="#263238"/>
<path d="M200.238 107.326C200.238 107.326 205.618 107.53 207.063 112.086C208.507 116.642 207.368 121.735 199.349 127.17C191.33 132.606 184.598 127.263 181.496 123.559C178.394 119.855 179.94 107.298 188.848 105.807C197.757 104.317 200.238 107.326 200.238 107.326Z" fill="#263238"/>
<path d="M195.099 108.807C201.933 109.798 203.6 113.771 203.081 120.845C202.433 129.726 199.59 135.661 191.321 132.587C180.098 128.374 183.765 107.159 195.099 108.807Z" fill="#E4897B"/>
<path d="M198.72 119.845C199.123 120.944 199.654 121.992 200.303 122.966C200.061 123.218 199.754 123.399 199.416 123.489C199.078 123.579 198.722 123.574 198.386 123.475L198.72 119.845Z" fill="#DE5753"/>
<path d="M194.627 118.688C194.562 119.243 194.201 119.669 193.821 119.614C193.441 119.558 193.201 119.077 193.265 118.512C193.33 117.947 193.691 117.53 194.071 117.586C194.451 117.641 194.691 118.123 194.627 118.688Z" fill="#263238"/>
<path d="M193.914 117.595L195.192 117.262C195.192 117.262 194.46 118.216 193.914 117.595Z" fill="#263238"/>
<path d="M201.636 119.41C201.572 119.975 201.21 120.392 200.831 120.336C200.451 120.281 200.21 119.799 200.275 119.234C200.34 118.669 200.701 118.253 201.081 118.308C201.461 118.364 201.701 118.845 201.636 119.41Z" fill="#263238"/>
<path d="M200.942 118.318L202.22 117.984C202.22 117.984 201.47 118.938 200.942 118.318Z" fill="#263238"/>
<path d="M192.126 114.891C192.036 114.889 191.95 114.853 191.886 114.789C191.826 114.727 191.792 114.644 191.792 114.558C191.792 114.472 191.826 114.389 191.886 114.326C192.365 113.955 192.924 113.7 193.518 113.582C194.113 113.463 194.727 113.483 195.312 113.641C195.393 113.669 195.461 113.726 195.503 113.801C195.544 113.877 195.555 113.965 195.534 114.049C195.523 114.09 195.505 114.129 195.479 114.163C195.453 114.197 195.42 114.226 195.383 114.247C195.346 114.269 195.305 114.283 195.263 114.288C195.22 114.294 195.177 114.291 195.136 114.28C194.663 114.155 194.168 114.138 193.687 114.229C193.206 114.32 192.752 114.518 192.358 114.808C192.294 114.864 192.211 114.894 192.126 114.891Z" fill="#263238"/>
<path d="M202.887 115.669C202.805 115.67 202.726 115.64 202.664 115.586C202.362 115.274 201.994 115.033 201.587 114.881C201.181 114.729 200.745 114.669 200.312 114.706C200.27 114.716 200.227 114.717 200.184 114.709C200.142 114.702 200.102 114.686 200.065 114.663C200.029 114.639 199.998 114.609 199.974 114.574C199.949 114.538 199.932 114.498 199.923 114.456C199.914 114.414 199.913 114.371 199.92 114.328C199.928 114.286 199.944 114.245 199.967 114.209C199.99 114.173 200.02 114.142 200.056 114.117C200.091 114.093 200.131 114.076 200.173 114.067C200.707 114.007 201.247 114.068 201.754 114.246C202.261 114.424 202.721 114.714 203.1 115.095C203.152 115.138 203.189 115.196 203.206 115.261C203.224 115.326 203.221 115.395 203.197 115.458C203.174 115.521 203.131 115.575 203.076 115.613C203.02 115.651 202.954 115.671 202.887 115.669Z" fill="#263238"/>
<path d="M185.978 119.225C185.978 119.225 189.978 114.077 190.126 109.678C190.126 109.678 204.452 106.104 203.137 119.938C203.137 119.938 206.22 107.9 194.525 105.965C182.829 104.029 180.394 121.179 185.719 127.17C185.719 127.17 183.496 122.448 185.978 119.225Z" fill="#263238"/>
<path d="M186.885 120.845C186.934 120.054 186.67 119.275 186.151 118.676C185.631 118.077 184.898 117.705 184.107 117.641C181.95 117.567 180.32 121.771 185.431 123.577C186.126 123.818 186.654 123.132 186.885 120.845Z" fill="#E4897B"/>
<path d="M196.794 127.374C195.929 127.414 195.074 127.17 194.362 126.678C193.649 126.187 193.117 125.474 192.849 124.651C192.826 124.568 192.836 124.479 192.877 124.403C192.919 124.326 192.988 124.27 193.071 124.244C193.112 124.231 193.156 124.227 193.199 124.231C193.242 124.235 193.284 124.248 193.322 124.269C193.36 124.29 193.393 124.318 193.42 124.352C193.447 124.386 193.467 124.424 193.478 124.466C193.715 125.173 194.182 125.779 194.806 126.187C195.429 126.595 196.172 126.782 196.914 126.716C196.957 126.712 197.001 126.717 197.042 126.731C197.084 126.744 197.122 126.766 197.155 126.794C197.187 126.823 197.214 126.858 197.233 126.897C197.252 126.936 197.263 126.978 197.266 127.022C197.271 127.107 197.243 127.192 197.188 127.257C197.133 127.323 197.055 127.364 196.969 127.374H196.794Z" fill="#263238"/>
<path d="M199.349 104.604C199.349 104.604 203.72 102.872 203.535 106.807C203.35 110.743 186.774 120.466 178.385 119.845C178.385 119.845 180.663 119.253 181.394 118.262C180.323 116.165 180.043 113.753 180.604 111.466C181.165 109.179 182.53 107.171 184.45 105.807C193.164 98.9364 199.349 104.604 199.349 104.604Z" fill="#263238"/>
<path d="M190.061 120.077C190.011 120.08 189.961 120.066 189.919 120.037C189.877 120.009 189.846 119.968 189.83 119.92C189.82 119.892 189.815 119.862 189.817 119.832C189.818 119.803 189.826 119.773 189.839 119.747C189.852 119.72 189.87 119.696 189.892 119.676C189.915 119.657 189.941 119.642 189.969 119.633C201.155 115.79 201.951 107.743 202.007 107.669C202.012 107.609 202.039 107.553 202.084 107.514C202.129 107.474 202.188 107.453 202.248 107.456C202.307 107.463 202.362 107.493 202.4 107.539C202.438 107.586 202.457 107.646 202.451 107.706C202.451 107.789 201.636 116.114 190.163 120.059L190.061 120.077Z" fill="#263238"/>
<path d="M209.517 139.754C213.063 141.217 225.879 158.154 225.703 164.756C225.527 171.359 210.128 183.082 210.128 183.082L216.175 188.768C216.175 188.768 211.045 192.185 210.498 191.999C209.952 191.814 205.803 184.406 205.128 183.082C204.452 181.758 207.6 179.887 207.6 179.887C207.6 179.887 220.388 167.303 220.564 163.988C220.74 160.673 207.6 150.607 207.6 150.607L209.517 139.754Z" fill="#E4897B"/>
<path d="M185.126 141.282C185.469 143.597 179.181 173.692 179.181 173.692L174.551 172.766C174.551 172.766 175.431 142.829 178.912 135.782L182.533 136.013L185.126 141.282Z" fill="#7C20BE"/>
<path d="M197.951 142.042C196.099 144.459 198.47 176.813 198.47 176.813L206.952 176.054L209.517 139.754C209.517 139.754 208.35 138.31 203.498 136.921L197.951 142.042Z" fill="#7C20BE"/>
<path opacity="0.4" d="M185.126 141.282C185.469 143.597 179.181 173.692 179.181 173.692L174.551 172.766C174.551 172.766 175.431 142.829 178.912 135.782L182.533 136.013L185.126 141.282Z" fill="white"/>
<path opacity="0.4" d="M209.517 139.754L208.896 148.514L208.156 159.006L206.952 176.053L198.47 176.813C198.47 176.813 196.09 144.458 197.951 142.051L203.507 136.93C208.35 138.31 209.517 139.754 209.517 139.754Z" fill="white"/>
<path d="M197.951 142.042C197.951 142.042 203.238 133.069 205.127 133.985C207.017 134.902 206.739 136.004 206.739 136.004C206.739 136.004 208.48 136.18 208.665 136.93C208.85 137.68 205.35 141.347 197.951 142.042Z" fill="#7C20BE"/>
<path d="M185.126 141.282C185.126 141.282 185.126 133.069 183.941 132.624C182.755 132.18 181.996 134.633 181.996 134.633C181.996 134.633 181.163 132.781 180.024 134.633C178.885 136.485 185.126 141.282 185.126 141.282Z" fill="#7C20BE"/>
<path opacity="0.2" d="M197.951 142.042C197.951 142.042 203.238 133.069 205.127 133.985C207.017 134.902 206.739 136.004 206.739 136.004C206.739 136.004 208.48 136.18 208.665 136.93C208.85 137.68 205.35 141.347 197.951 142.042Z" fill="white"/>
<path opacity="0.2" d="M185.126 141.282C185.126 141.282 185.126 133.069 183.941 132.624C182.755 132.18 181.996 134.633 181.996 134.633C181.996 134.633 181.163 132.781 180.024 134.633C178.885 136.485 185.126 141.282 185.126 141.282Z" fill="white"/>
<path opacity="0.2" d="M208.896 148.514L208.156 159.006C207.283 155.241 207.036 151.359 207.424 147.514L208.896 148.514Z" fill="black"/>
<path d="M209.517 139.754C212.082 140.792 226.74 157.034 226.49 163.83C226.24 170.627 213.526 180.998 213.526 180.998L208.646 177.646C208.646 177.646 219.017 164.682 218.527 161.515C218.036 158.348 208.646 151.7 208.646 151.7C208.646 151.7 206.794 150.153 207.572 145.394C208.35 140.634 209.517 139.754 209.517 139.754Z" fill="#7C20BE"/>
<path opacity="0.4" d="M209.517 139.754C212.082 140.792 226.74 157.034 226.49 163.83C226.24 170.627 213.526 180.998 213.526 180.998L208.646 177.646C208.646 177.646 219.017 164.682 218.527 161.515C218.036 158.348 208.646 151.7 208.646 151.7C208.646 151.7 206.794 150.153 207.572 145.394C208.35 140.634 209.517 139.754 209.517 139.754Z" fill="white"/>
<path d="M145.493 196.351L148.836 197.416L151.771 201.963C151.771 201.963 149.151 203.194 147.891 202.454C146.632 201.713 144.826 199.768 144.817 199.037C144.943 198.119 145.17 197.219 145.493 196.351Z" fill="#E4897B"/>
</svg>
